<?xml version="1.0" encoding="UTF-8" standalone="no"?>
<svg
   version="1.1"
   width="453.5433pt"
   height="453.5433pt"
   id="svg36"
   viewBox="0 0 453.5433 453.5433"
   sodipodi:docname="aecpm-3ir8z.cdr"
   xmlns:inkscape="http://www.inkscape.org/namespaces/inkscape"
   xmlns:sodipodi="http://sodipodi.sourceforge.net/DTD/sodipodi-0.dtd"
   xmlns="http://www.w3.org/2000/svg"
   xmlns:svg="http://www.w3.org/2000/svg">
  <defs
     id="defs40" />
  <sodipodi:namedview
     id="namedview38"
     pagecolor="#ffffff"
     bordercolor="#000000"
     borderopacity="0.25"
     inkscape:showpageshadow="2"
     inkscape:pageopacity="0.0"
     inkscape:pagecheckerboard="0"
     inkscape:deskcolor="#d1d1d1"
     inkscape:document-units="pt" />
  <path
     d="m 308.0036,338.5625 c -24.4253,17.7455 -55.2663,20.2808 -81.2192,9.4008 -25.9545,10.8851 -56.8031,8.3518 -81.2304,-9.3957 -24.4253,-17.746 -36.367,-46.2942 -34.0392,-74.3388 -18.3723,-21.3206 -25.4956,-51.4423 -16.165,-80.1579 9.3296,-28.713 32.7924,-48.8931 60.1834,-55.3455 14.5997,-24.062 41.044,-40.1435 71.2379,-40.1435 30.1909,0 56.6352,16.0785 71.2365,40.1349 27.3961,6.4493 50.8604,26.6299 60.1905,55.346 9.3296,28.713 2.2098,58.8306 -16.1574,80.1507 2.3324,28.0482 -9.6093,56.6015 -34.0371,74.349 z M 226.7727,113.3856 c 62.6114,0 113.3863,50.7748 113.3863,113.3856 0,62.6113 -50.7749,113.3861 -113.3863,113.3861 -62.6109,0 -113.3859,-50.7748 -113.3859,-113.3861 0,-62.6108 50.775,-113.3856 113.3859,-113.3856 z"
     style="fill:#004394;fill-rule:evenodd"
     id="path2" />
  <path
     d="m 158.6451,219.2887 h -4.2874 v -16.1651 c -1.568,1.4692 -3.4122,2.5527 -5.5377,3.2508 v -3.8916 c 1.1149,-0.3645 2.3338,-1.0575 3.6467,-2.0783 1.3129,-1.0265 2.2141,-2.2195 2.6985,-3.5843 h 3.4799 z m 8.2384,-5.173 4.152,-0.4586 c 0.1041,0.8443 0.3699,1.4692 0.7971,1.8756 0.4272,0.4063 0.9898,0.6094 1.6929,0.6094 0.8857,0 1.636,-0.4063 2.2559,-1.2189 0.6249,-0.8126 1.0208,-2.5005 1.1929,-5.0687 -1.0784,1.2553 -2.4277,1.8806 -4.0427,1.8806 -1.7607,0 -3.2818,-0.6825 -4.5583,-2.0369 -1.2762,-1.3597 -1.917,-3.1257 -1.917,-5.3035 0,-2.2713 0.6772,-4.0997 2.0265,-5.4907 1.3442,-1.3857 3.0631,-2.0838 5.1471,-2.0838 2.2711,0 4.1311,0.8804 5.5896,2.6359 1.4534,1.7556 2.1827,4.6418 2.1827,8.6584 0,4.0946 -0.7604,7.0432 -2.2764,8.856 -1.5161,1.8078 -3.4903,2.7141 -5.9231,2.7141 -1.7505,0 -3.1621,-0.4636 -4.2405,-1.3961 -1.0784,-0.9325 -1.7714,-2.3233 -2.0787,-4.1728 z m 9.7105,-9.3719 c 0,-1.3857 -0.3177,-2.4587 -0.9534,-3.2194 -0.6354,-0.7658 -1.3753,-1.1462 -2.2088,-1.1462 -0.7917,0 -1.4534,0.3127 -1.9745,0.9379 -0.5259,0.625 -0.7864,1.6512 -0.7864,3.0786 0,1.4433 0.2864,2.5059 0.8541,3.178 0.568,0.6772 1.2816,1.0158 2.1359,1.0158 0.8231,0 1.5211,-0.3231 2.0838,-0.9743 0.568,-0.6509 0.8493,-1.6097 0.8493,-2.8704 z m 9.3845,8.7883 4.2716,-0.4376 c 0.1199,0.9639 0.4845,1.7297 1.0838,2.2923 0.599,0.568 1.2917,0.8493 2.0733,0.8493 0.8958,0 1.6566,-0.3649 2.2764,-1.0889 0.6199,-0.7294 0.9326,-1.8286 0.9326,-3.2925 0,-1.3698 -0.3073,-2.4014 -0.9272,-3.089 -0.6148,-0.6876 -1.417,-1.0316 -2.4017,-1.0316 -1.2294,0 -2.3337,0.5471 -3.3131,1.6357 l -3.4802,-0.5051 2.1986,-11.6432 h 11.3411 v 4.0111 h -8.0903 l -0.6721,3.8029 c 0.9584,-0.4791 1.9328,-0.7189 2.933,-0.7189 1.9015,0 3.5163,0.693 4.8342,2.0736 1.3233,1.3857 1.985,3.183 1.985,5.3917 0,1.8388 -0.5313,3.4853 -1.5993,4.9282 -1.4587,1.9743 -3.4747,2.959 -6.0588,2.959 -2.0682,0 -3.7507,-0.5522 -5.0531,-1.6619 -1.3025,-1.1098 -2.0838,-2.5995 -2.3338,-4.4751 z m 22.7363,-6.3138 c -1.1097,-0.4686 -1.917,-1.1148 -2.4172,-1.9328 -0.5054,-0.8177 -0.7554,-1.7189 -0.7554,-2.6932 0,-1.667 0.5782,-3.0476 1.7452,-4.1364 1.167,-1.0886 2.8235,-1.6357 4.9699,-1.6357 2.1255,0 3.7767,0.5471 4.9491,1.6357 1.1771,1.0888 1.766,2.4694 1.766,4.1364 0,1.0367 -0.2708,1.9588 -0.8129,2.7714 -0.5364,0.8075 -1.2971,1.4274 -2.2714,1.8546 1.2401,0.4949 2.1828,1.2243 2.829,2.1828 0.6458,0.9534 0.9689,2.0578 0.9689,3.308 0,2.0682 -0.6563,3.7456 -1.9743,5.0377 -1.3182,1.292 -3.0684,1.9378 -5.2566,1.9378 -2.0369,0 -3.7298,-0.5313 -5.0845,-1.5993 -1.5993,-1.2657 -2.3961,-2.9953 -2.3961,-5.1939 0,-1.2085 0.3019,-2.3182 0.9013,-3.334 0.599,-1.0107 1.547,-1.792 2.839,-2.3391 z m 0.8857,-4.3187 c 0,0.8544 0.2396,1.5214 0.724,1.9954 0.4845,0.4791 1.1253,0.719 1.9328,0.719 0.8126,0 1.4639,-0.2399 1.9534,-0.7243 0.4845,-0.4845 0.7294,-1.1512 0.7294,-2.0056 0,-0.8076 -0.2396,-1.4483 -0.724,-1.9328 -0.4845,-0.4845 -1.1202,-0.724 -1.9173,-0.724 -0.8231,0 -1.4794,0.2449 -1.9692,0.7294 -0.4845,0.4895 -0.7291,1.1357 -0.7291,1.9429 z m -0.3962,9.5804 c 0,1.1825 0.3022,2.1046 0.9066,2.7663 0.6044,0.6616 1.3598,0.9898 2.266,0.9898 0.8857,0 1.6202,-0.318 2.1986,-0.9534 0.5782,-0.6358 0.8699,-1.5525 0.8699,-2.7559 0,-1.0471 -0.2968,-1.891 -0.8857,-2.5267 -0.5886,-0.6354 -1.3388,-0.9531 -2.2451,-0.9531 -1.0471,0 -1.8287,0.3645 -2.3391,1.0835 -0.5158,0.724 -0.7712,1.5056 -0.7712,2.3495 z"
     style="fill:#004394;fill-rule:evenodd"
     id="path4" />
  <path
     d="m 226.7725,28.3461 c 109.5683,0 198.4241,88.8572 198.4241,198.4263 0,109.568 -88.8558,198.4242 -198.4241,198.4242 -109.5703,0 -198.4264,-88.8562 -198.4264,-198.4242 0,-109.5691 88.8561,-198.4263 198.4264,-198.4263 z m 0,7.087 c 105.655,0 191.3382,85.6835 191.3382,191.3393 0,105.654 -85.6832,191.3366 -191.3382,191.3366 -105.6553,0 -191.3395,-85.6826 -191.3395,-191.3366 0,-105.6558 85.6842,-191.3393 191.3395,-191.3393 z"
     style="fill:#004394;fill-rule:evenodd"
     id="path6" />
  <path
     d="m 368.1781,290.2629 c 0.2299,0.1155 0.4025,0.3147 0.5184,0.5957 0.1167,0.2802 0.1167,0.5359 0,0.765 -0.2253,0.4435 -0.5468,0.6779 -0.9642,0.7063 -0.4196,0.0273 -0.8286,0.0557 -1.2266,0.0814 -0.2924,0.083 -0.5208,0.2852 -0.6844,0.606 -0.4435,0.8706 -0.0613,1.6137 1.1453,2.2287 l 2.9112,1.4834 1.4129,-2.7744 0.7336,0.3741 -1.4134,2.7749 7.7471,3.9473 c 0.9771,0.4973 1.833,0.0284 2.5658,-1.4084 l 0.3192,0.1632 -3.0475,5.9826 -0.3204,-0.164 c 0.6381,-1.2517 0.4692,-2.1284 -0.5101,-2.6268 l -7.7459,-3.9458 -0.9578,1.8784 -0.7336,-0.3745 0.9578,-1.8796 -0.7105,-0.3613 c -1.4667,-0.7472 -2.426,-1.7171 -2.8774,-2.9089 -0.4208,-1.1384 -0.328,-2.3041 0.2798,-3.4959 0.3587,-0.7022 0.8177,-1.2085 1.3808,-1.5194 0.4924,-0.2488 0.8995,-0.2916 1.2199,-0.128 z M 73.501,245.0117 c -0.1124,-1.6069 -0.7082,-2.3742 -1.7856,-2.2992 l -9.1861,0.643 c -2.1898,0.1527 -3.8584,-0.479 -5.0067,-1.8939 -0.885,-1.107 -1.3902,-2.5499 -1.5141,-4.3299 -0.131,-1.8644 0.2019,-3.366 0.9994,-4.5059 0.9707,-1.3725 2.5844,-2.1383 4.8423,-2.2973 l 8.9559,-0.6264 c 1.0774,-0.075 1.5633,-0.8646 1.4584,-2.3704 l 0.4871,-0.0345 0.4995,7.1358 -0.4867,0.0322 c -0.1056,-1.5054 -0.6729,-2.2216 -1.6985,-2.1496 l -9.2899,0.6484 c -1.5213,0.1068 -2.6472,0.479 -3.377,1.1126 -0.9093,0.77 -1.3047,1.9917 -1.1884,3.6668 0.2261,3.2175 1.9894,4.7097 5.291,4.4794 l 9.0581,-0.634 c 1.129,-0.0776 1.6369,-0.9221 1.5251,-2.5302 l 0.4863,-0.0341 0.4166,5.9538 z m -14.2382,15.2823 -0.9418,-5.3441 0.3548,-0.0629 c 0.1879,1.0646 0.8218,1.5009 1.9015,1.3096 l 6.3845,-1.1259 c 0.6252,-0.1109 1.0653,-0.3745 1.3228,-0.7945 0.2572,-0.4196 0.3371,-0.8983 0.2412,-1.4403 -0.1628,-0.9275 -0.8165,-1.7712 -1.9609,-2.5275 l -6.8143,1.202 c -1.0797,0.1913 -1.5266,0.8184 -1.3395,1.8807 l -0.3537,0.0633 -0.9438,-5.3452 0.3552,-0.0629 c 0.1879,1.0642 0.8226,1.5016 1.9035,1.31 l 6.8646,-1.2093 c 0.5412,-0.095 0.8661,-0.2662 0.9809,-0.5131 0.1136,-0.2462 0.0973,-0.6783 -0.0462,-1.2982 l 0.3548,-0.0625 1.8519,3.5398 -2.0776,0.3666 c 1.5899,0.9218 2.5132,2.1079 2.7692,3.5599 0.3431,1.9428 -0.7696,3.1396 -3.3365,3.5929 l -5.7762,1.0188 c -1.0816,0.1897 -1.5262,0.8172 -1.3395,1.8818 z m 17.4706,2.7085 c -0.3681,0.08 -0.6976,0.0171 -0.9854,-0.1833 -0.289,-0.2029 -0.473,-0.4866 -0.5499,-0.8585 -0.0803,-0.3677 -0.0258,-0.6946 0.159,-0.9794 0.1849,-0.2844 0.4625,-0.4662 0.8309,-0.5438 0.3693,-0.0795 0.7041,-0.028 1.0052,0.1545 0.3025,0.1803 0.4927,0.456 0.5707,0.8237 0.0784,0.3693 0.0189,0.7078 -0.1795,1.0116 -0.1985,0.306 -0.4821,0.4976 -0.851,0.5752 z m -15.446,5.2824 -1.2664,-5.9637 0.3515,-0.0738 c 0.2726,1.2744 0.9441,1.7977 2.0178,1.5698 l 6.7426,-1.4335 c 0.8722,-0.1859 1.2403,-0.5972 1.1055,-1.2346 -0.0534,-0.2518 -0.1875,-0.5559 -0.4045,-0.9138 l 0.3772,-0.0803 2.2189,3.7629 -9.5857,2.0379 c -1.0744,0.2276 -1.4747,0.9801 -1.2035,2.2533 z m 14.5231,10.4578 c -0.1428,-0.5302 -0.7923,-0.8699 -1.9512,-1.0221 l -9.9174,-1.2305 c -0.3674,-0.0432 -0.5742,-0.1208 -0.6215,-0.2329 -0.0485,-0.1117 0.089,-0.2977 0.4082,-0.562 l 7.9379,-6.2537 c 0.9078,-0.7245 1.2725,-1.4168 1.0942,-2.078 l 0.3476,-0.0943 1.3055,4.8702 -0.3481,0.0932 c -0.1996,-0.7453 -0.5309,-1.0555 -0.999,-0.9309 -0.2038,0.0371 -0.4768,0.1761 -0.8253,0.417 l -5.569,4.2268 6.4564,0.6397 c 0.5457,0.0492 0.9771,0.0397 1.2963,-0.028 0.5014,-0.1175 0.6548,-0.5382 0.4594,-1.2676 l 0.3484,-0.0939 0.9245,3.4535 z m -2.1171,13.5239 c -1.2221,0.1201 -2.4116,-0.1454 -3.5694,-0.7918 -1.1585,-0.6495 -1.9424,-1.5096 -2.3548,-2.5814 -0.4859,-1.2645 -0.4223,-2.5116 0.1908,-3.7394 0.6556,-1.3532 1.8561,-2.3662 3.6009,-3.0358 1.6334,-0.6256 3.1611,-0.6893 4.5836,-0.1886 1.4236,0.5003 2.4079,1.4645 2.9555,2.8885 0.4984,1.2963 0.4734,2.4912 -0.0712,3.5819 -0.5469,1.0914 -1.4353,1.8731 -2.6665,2.3469 l -2.8582,-7.4441 c -1.5054,0.5772 -2.6158,1.4308 -3.3305,2.559 -0.715,1.129 -0.8668,2.2288 -0.4548,3.302 0.2954,0.7684 0.8612,1.4051 1.6974,1.9114 0.7491,0.4651 1.5141,0.7135 2.2962,0.743 z m 2.4954,-4.2635 c 1.7792,-0.8677 2.4056,-1.989 1.8773,-3.3653 -0.595,-1.5505 -1.8595,-2.0932 -3.7947,-1.6304 z m 7.7107,10.7881 c -0.7525,0.3355 -1.2684,0.1897 -1.5475,-0.4375 -0.1469,-0.3294 -0.1409,-0.6885 0.014,-1.0766 0.1546,-0.3886 0.1875,-0.684 0.097,-0.8893 -0.1182,-0.2643 -0.4734,-0.4817 -1.065,-0.6514 -0.5945,-0.1658 -1.1179,-0.1492 -1.572,0.0527 l -5.5141,2.4556 c -1.0078,0.4488 -1.2426,1.2664 -0.7135,2.4575 l -0.328,0.1465 -2.47,-5.5459 0.3291,-0.1473 c 0.5234,1.1755 1.2865,1.5402 2.292,1.0914 l 6.0315,-2.6854 c 0.9134,-0.406 1.2626,-0.9286 1.0539,-1.566 -0.1121,-0.2515 -0.3011,-0.5052 -0.5654,-0.7627 l 0.3522,-0.1576 2.968,3.1854 -2.139,0.9521 c 1.8436,0.3056 2.968,0.9115 3.3729,1.8208 0.1537,0.3435 0.1742,0.6863 0.0621,1.0279 -0.1099,0.3393 -0.331,0.5843 -0.6582,0.7298 z m -1.9076,11.7526 c -0.9302,0.5159 -1.8565,0.5799 -2.7787,0.189 -0.829,-0.3639 -1.4925,-0.9956 -1.9928,-1.8962 -0.1818,-0.3299 -0.342,-0.815 -0.4806,-1.4535 -0.139,-0.6389 -0.2836,-1.0938 -0.4328,-1.363 -0.1837,-0.3318 -0.3795,-0.4374 -0.5901,-0.3208 l -0.1738,-0.3151 3.4872,-1.9333 0.2113,0.3825 c -1.8663,1.5845 -2.3927,3.1126 -1.5785,4.5809 0.2829,0.5102 0.6476,0.8669 1.0942,1.0707 0.5089,0.2473 1.0191,0.2295 1.53,-0.0542 0.718,-0.3969 1.0929,-1.3509 1.1168,-2.8544 l 0.0428,-2.0541 c 0.0386,-1.6278 0.6059,-2.7461 1.7001,-3.3532 0.7195,-0.3992 1.5137,-0.4715 2.3802,-0.2162 0.8669,0.2548 1.5531,0.8392 2.061,1.7538 0.2499,0.4503 0.4113,0.9396 0.4881,1.4653 0.0765,0.5267 0.161,0.8725 0.2519,1.0369 0.0988,0.1799 0.2628,0.2465 0.4919,0.1973 l 0.1614,0.2931 -3.0589,1.6967 -0.2,-0.3606 c 1.5789,-1.4645 2.0375,-2.7964 1.3729,-3.9958 -0.2496,-0.4507 -0.6049,-0.773 -1.0661,-0.9703 -0.4609,-0.1946 -0.9097,-0.1708 -1.3433,0.0705 -0.6454,0.3578 -0.9942,1.2865 -1.0464,2.7847 l -0.0712,2.0988 c -0.0618,1.7993 -0.587,2.9725 -1.5766,3.5205 z m 14.832,-1.1524 c -0.3196,0.2 -0.6506,0.2541 -0.9896,0.1636 -0.3408,-0.0905 -0.6105,-0.2961 -0.81,-0.6162 -0.2004,-0.3211 -0.2614,-0.6457 -0.1867,-0.977 0.0772,-0.3299 0.2745,-0.595 0.5949,-0.7961 0.32,-0.1992 0.6522,-0.2651 0.9979,-0.1984 0.3458,0.0677 0.6177,0.2605 0.8173,0.5817 0.2003,0.3185 0.2606,0.6559 0.1788,1.0104 -0.0822,0.3541 -0.2826,0.6317 -0.6026,0.832 z m -12.7086,10.245 -3.2308,-5.1694 0.306,-0.1905 c 0.6912,1.1054 1.502,1.3664 2.4317,0.7866 l 5.8467,-3.6547 c 0.7574,-0.4726 0.9619,-0.985 0.6165,-1.5379 -0.1363,-0.2174 -0.3673,-0.4583 -0.6927,-0.7196 l 0.3269,-0.2056 3.3736,2.7771 -8.3117,5.1933 c -0.9305,0.5821 -1.0509,1.4251 -0.3598,2.5314 z m 6.598,6.4283 c -0.8971,-0.0848 -1.5868,-0.2181 -2.0708,-0.4018 -0.6105,-0.2439 -1.1111,-0.6449 -1.5065,-1.2069 -0.7563,-1.0813 -0.3829,-2.1493 1.1198,-3.2013 l 6.7223,-4.7075 -0.7817,-1.116 c -0.0402,-0.0561 -0.0159,-0.1258 0.0731,-0.2091 0.0969,-0.0693 0.1757,-0.0909 0.2336,-0.0693 0.8654,0.3992 2.417,0.6416 4.6556,0.7279 l 0.5495,0.0239 -2.8029,1.9628 1.4604,2.0849 -0.6745,0.4726 -1.46,-2.086 -6.131,4.2947 c -1.1668,0.8154 -1.5334,1.533 -1.1009,2.1492 0.2859,0.409 0.871,0.6896 1.7538,0.8464 z m 15.6251,4.8491 c -0.1579,-0.2022 -0.4889,-0.292 -0.9937,-0.2689 -0.4034,0.0118 -0.7832,0.0693 -1.1381,0.1723 l -11.427,3.5085 c -2.7036,0.829 -4.5525,0.6078 -5.5444,-0.662 -0.7703,-0.987 -0.7305,-1.8129 0.1219,-2.4772 0.2428,-0.1913 0.5333,-0.2231 0.8719,-0.0951 0.2798,0.1072 0.515,0.2826 0.7055,0.5268 0.1163,0.1481 0.256,0.495 0.4208,1.0404 0.0776,0.2673 0.1905,0.4949 0.3381,0.6824 0.5072,0.6487 2.0262,0.4628 4.5587,-0.5571 l 4.518,-8.8847 c 0.3204,-0.6188 0.4928,-1.0259 0.5166,-1.219 0.0477,-0.2988 -0.036,-0.6692 -0.2488,-1.1104 l 0.2837,-0.2235 3.2622,4.1776 -0.2833,0.2208 c -0.6237,-0.7972 -1.1175,-1.0539 -1.4819,-0.7684 -0.189,0.1481 -0.3632,0.3712 -0.5245,0.665 l -3.4069,6.5306 6.5052,-2.1882 c 0.5859,-0.1966 0.9407,-0.3424 1.0615,-0.4374 0.1212,-0.0947 0.1708,-0.2697 0.1466,-0.5227 -0.0242,-0.2529 -0.1572,-0.5355 -0.3999,-0.8471 l 0.2851,-0.2205 2.1371,2.7366 z m 8.4696,16.1189 c -1.2895,1.2108 -2.7335,1.8413 -4.3332,1.8936 -1.5997,0.0538 -2.9737,-0.4992 -4.1224,-1.6554 -1.0733,-1.0846 -1.583,-2.4041 -1.5243,-3.9564 0.0583,-1.555 0.6707,-2.9355 1.8372,-4.1447 1.2039,-1.2448 2.5374,-1.9239 4.0037,-2.0352 1.5501,-0.1235 2.9608,0.4276 4.2314,1.6554 1.2585,1.2149 1.8792,2.5892 1.8641,4.123 -0.0163,1.5357 -0.6688,2.9082 -1.9565,4.1197 z m -2.4177,-0.9047 c 1.1903,-1.2331 1.9773,-2.4291 2.3571,-3.588 0.4731,-1.427 0.2337,-2.5999 -0.7161,-3.516 -0.6669,-0.6446 -1.4649,-0.8419 -2.3946,-0.5953 -0.8571,0.2208 -1.7077,0.7688 -2.553,1.6459 -1.1437,1.1831 -1.9235,2.3984 -2.3382,3.6421 -0.4851,1.4387 -0.3007,2.5703 0.5492,3.3921 0.754,0.7272 1.6667,0.9173 2.7396,0.5704 0.8321,-0.2689 1.6183,-0.7874 2.356,-1.5512 z m 17.8841,0.8358 c -0.167,0.1931 -0.4022,0.3132 -0.7025,0.3579 -0.3007,0.0454 -0.5476,-0.0156 -0.7423,-0.1833 -0.376,-0.328 -0.5264,-0.6976 -0.4518,-1.1089 0.0743,-0.4121 0.1462,-0.8161 0.2159,-1.2096 -0.008,-0.3038 -0.1488,-0.5742 -0.4219,-0.8101 -0.7362,-0.6408 -1.5505,-0.4495 -2.4382,0.5715 l -2.1439,2.4662 2.3488,2.0416 -0.54,0.6223 -2.3477,-2.0421 -5.705,6.5616 c -0.7207,0.8279 -0.4715,1.7705 0.7442,2.8283 l -0.2352,0.2727 -5.0676,-4.4049 0.2371,-0.2715 c 1.0604,0.921 1.9511,0.9684 2.6714,0.1409 l 5.7035,-6.5628 -1.5906,-1.3834 0.5393,-0.6211 1.5921,1.3853 0.523,-0.6029 c 1.0794,-1.2426 2.253,-1.9383 3.5187,-2.0879 1.2066,-0.1325 2.3147,0.2383 3.3232,1.1165 0.5969,0.5166 0.9767,1.0877 1.1411,1.7076 0.1219,0.5386 0.0655,0.9426 -0.1716,1.2161 z m 6.701,18.8074 c -0.9475,1.3035 -2.1458,1.9897 -3.5959,2.0598 -1.2789,0.0685 -2.5343,-0.3465 -3.7697,-1.2437 -0.5139,-0.373 -1.0411,-0.9309 -1.5823,-1.6743 -0.5412,-0.743 -0.9157,-1.1895 -1.1236,-1.3403 -0.3477,-0.253 -0.7211,-0.1749 -1.1244,0.2329 l -0.4575,-0.3325 2.6275,-4.9282 0.4575,0.3321 c -0.9104,3.09 -0.3662,5.3623 1.6323,6.815 0.6093,0.4424 1.2936,0.6533 2.0522,0.6302 0.8669,-0.0269 1.5618,-0.3995 2.0871,-1.1218 0.8465,-1.1641 0.8582,-2.6835 0.033,-4.5536 l -1.1517,-2.6177 c -0.9585,-2.1791 -0.9392,-3.9572 0.0591,-5.3308 0.7851,-1.0828 1.7618,-1.7027 2.9271,-1.8644 1.1653,-0.1583 2.2973,0.159 3.3937,0.9555 0.6241,0.4529 1.1433,1.007 1.5599,1.6587 0.417,0.6514 0.7351,1.0586 0.9574,1.2206 0.3052,0.2216 0.6942,0.1534 1.1657,-0.2041 l 0.4359,0.3189 -2.7612,4.765 -0.5011,-0.3628 c 0.9582,-2.9506 0.5219,-5.0915 -1.3103,-6.4215 -0.584,-0.4249 -1.2047,-0.6052 -1.8633,-0.5439 -0.6598,0.0614 -1.215,0.4053 -1.6698,1.0286 -0.3931,0.5412 -0.5166,1.2362 -0.37,2.0852 0.1038,0.5 0.3787,1.3021 0.8248,2.411 l 1.1108,2.7142 c 0.9184,2.2367 0.9059,4.0072 -0.0432,5.3119 z m 10.9018,7.3262 c -1.2229,0.7794 -2.2469,1.2672 -3.0729,1.4638 -1.1631,0.2999 -2.264,0.1484 -3.3036,-0.453 -1.1736,-0.676 -1.9038,-1.6925 -2.1916,-3.0468 -0.3128,-1.4474 -0.0227,-2.9441 0.8695,-4.4874 0.8908,-1.5463 2.0822,-2.5605 3.5709,-3.0482 1.4888,-0.4867 2.9976,-0.2879 4.5276,0.5953 0.8907,0.5147 1.5319,1.1801 1.9193,1.9985 0.389,0.8191 0.4212,1.5095 0.0951,2.0746 -0.1534,0.2674 -0.3836,0.4427 -0.6874,0.523 -0.3045,0.0826 -0.5995,0.0424 -0.8812,-0.1204 -0.2966,-0.172 -0.478,-0.4162 -0.5446,-0.7302 -0.0648,-0.3162 -0.0292,-0.5908 0.1086,-0.8298 0.2568,-0.4453 0.3208,-0.8987 0.1909,-1.3596 -0.1295,-0.4612 -0.4249,-0.8256 -0.885,-1.0903 -1.0843,-0.6256 -2.1735,-0.6116 -3.2653,0.0462 -0.7976,0.4886 -1.4573,1.1877 -1.9822,2.0943 -0.676,1.1721 -0.9366,2.378 -0.7798,3.6175 0.156,1.238 0.7093,2.1314 1.6599,2.6809 1.218,0.7033 2.6991,0.6079 4.4423,-0.2866 z m 11.8421,-7.9295 c -0.1765,0.3329 -0.4344,0.5461 -0.7749,0.6362 -0.3389,0.092 -0.676,0.0492 -1.0089,-0.1287 -0.3325,-0.1773 -0.5499,-0.428 -0.648,-0.7533 -0.1007,-0.3242 -0.0602,-0.6541 0.1163,-0.9862 0.1765,-0.3333 0.4313,-0.5571 0.7639,-0.6707 0.3344,-0.1144 0.6661,-0.0833 0.9986,0.0936 0.3337,0.1776 0.553,0.44 0.6598,0.7877 0.1068,0.3484 0.0712,0.6885 -0.1068,1.0214 z m -5.8804,15.227 -5.3834,-2.8623 0.1685,-0.3185 c 1.1517,0.6131 1.9833,0.4336 2.4992,-0.5355 l 3.2365,-6.0864 c 0.4185,-0.7881 0.3401,-1.3357 -0.2352,-1.6406 -0.2261,-0.1208 -0.5476,-0.214 -0.9597,-0.278 l 0.1818,-0.3404 4.3087,0.7188 -4.6007,8.6536 c -0.5154,0.9692 -0.1977,1.7588 0.9525,2.3704 z m 13.0688,1.0096 c -0.7453,0.9756 -1.7501,1.6668 -3.0142,2.0705 -1.2642,0.4041 -2.4291,0.3931 -3.4941,-0.0383 -1.255,-0.5063 -2.1238,-1.4042 -2.6033,-2.6888 -0.5427,-1.4013 -0.465,-2.9707 0.2367,-4.7041 0.6545,-1.622 1.6505,-2.7816 2.9874,-3.4815 1.3368,-0.6987 2.7135,-0.7631 4.128,-0.1909 1.288,0.5204 2.1443,1.3528 2.5711,2.4946 0.4249,1.1437 0.3912,2.3265 -0.1038,3.5509 l -7.3941,-2.9858 c -0.6033,1.4944 -0.7369,2.8869 -0.3991,4.181 0.3389,1.2925 1.0399,2.1537 2.1053,2.5828 0.7623,0.3091 1.6152,0.3299 2.5559,0.0625 0.851,-0.2302 1.5531,-0.6215 2.1106,-1.1732 z m -1.416,-4.7328 c 0.5794,-1.8932 0.1848,-3.1153 -1.1824,-3.6671 -1.5383,-0.6226 -2.7979,-0.0685 -3.7784,1.6622 z m 13.7296,13.4456 -5.1316,-1.7667 0.1162,-0.3401 c 1.0233,0.3522 1.7114,0.008 2.0678,-1.0297 l 2.1121,-6.1292 c 0.2068,-0.5991 0.1882,-1.113 -0.0541,-1.5417 -0.2424,-0.4287 -0.623,-0.7332 -1.1426,-0.9105 -0.8915,-0.3063 -1.9459,-0.1435 -3.1604,0.4905 l -2.2538,6.5427 c -0.3567,1.0373 -0.0242,1.7318 0.9961,2.0829 l -0.1159,0.3408 -5.132,-1.7678 0.1163,-0.3405 c 1.0225,0.353 1.7114,0.01 2.0685,-1.0289 l 2.2689,-6.5901 c 0.1791,-0.5192 0.1886,-0.8877 0.028,-1.1066 -0.1602,-0.2185 -0.5468,-0.4154 -1.1577,-0.5885 l 0.1182,-0.3408 3.9931,0.0958 -0.6866,1.9943 c 1.577,-0.9438 3.0619,-1.1759 4.456,-0.6957 1.8652,0.6415 2.3719,2.1965 1.524,4.6597 l -1.9092,5.5448 c -0.3571,1.0384 -0.0242,1.7337 0.9961,2.0859 z m 12.6419,-1.0563 c -0.9407,1.1029 -1.7777,1.8686 -2.5105,2.2973 -1.0241,0.626 -2.1216,0.8048 -3.2911,0.5348 -1.3205,-0.3053 -2.3166,-1.0623 -2.9865,-2.2742 -0.7234,-1.2933 -0.8824,-2.8078 -0.4821,-4.5446 0.401,-1.7394 1.2433,-3.0596 2.5245,-3.9591 1.2812,-0.9021 2.7824,-1.1528 4.5041,-0.7555 1.0024,0.2314 1.8095,0.682 2.4204,1.352 0.612,0.6684 0.8434,1.3198 0.6968,1.9545 -0.0693,0.3007 -0.2375,0.5359 -0.5048,0.7022 -0.2682,0.1674 -0.5605,0.2124 -0.8779,0.1412 -0.3344,-0.0784 -0.5783,-0.2564 -0.7336,-0.5389 -0.1541,-0.2829 -0.2011,-0.5574 -0.1393,-0.8244 0.1151,-0.5011 0.0435,-0.9529 -0.2148,-1.3566 -0.259,-0.4037 -0.648,-0.665 -1.1653,-0.7836 -1.2191,-0.2817 -2.2556,0.0504 -3.1081,0.998 -0.6203,0.7006 -1.0479,1.5622 -1.2831,2.5809 -0.3052,1.321 -0.2,2.5495 0.3109,3.6883 0.5117,1.1399 1.3013,1.8322 2.37,2.0795 1.3714,0.3159 2.7605,-0.209 4.1655,-1.5735 z m 12.6488,2.2273 c -0.5465,1.0986 -1.4009,1.9681 -2.5647,2.6063 -1.1631,0.6393 -2.309,0.8479 -3.4376,0.6302 -1.3289,-0.2591 -2.3526,-0.9741 -3.068,-2.1439 -0.801,-1.2733 -1.0229,-2.8272 -0.6662,-4.6624 0.3341,-1.7171 1.0904,-3.046 2.2689,-3.9883 1.179,-0.9403 2.517,-1.2653 4.0159,-0.9748 1.3623,0.2659 2.3632,0.9184 2.9987,1.9591 0.637,1.0407 0.8294,2.2094 0.576,3.5062 l -7.8269,-1.5225 c -0.3071,1.5827 -0.1716,2.9756 0.406,4.1807 0.5787,1.2028 1.4308,1.9151 2.5597,2.1352 0.8082,0.1571 1.6482,0.014 2.5208,-0.428 0.7907,-0.3882 1.4058,-0.9051 1.847,-1.5531 z m -2.2939,-4.3772 c 0.2064,-1.9682 -0.4128,-3.0922 -1.8595,-3.3751 -1.6293,-0.3163 -2.7605,0.4684 -3.3926,2.3541 z m 19.9746,8.7953 c -0.367,0.2609 -0.7336,0.5218 -1.1017,0.782 -0.4359,0.2715 -0.8506,0.3893 -1.2433,0.3564 -1.043,-0.0924 -1.5838,-0.7934 -1.6239,-2.1049 -0.6094,0.4624 -1.2892,0.86 -2.0406,1.1899 -0.7525,0.331 -1.341,0.476 -1.7693,0.4393 -0.7518,-0.0663 -1.3786,-0.3745 -1.8807,-0.9263 -0.5026,-0.5511 -0.7234,-1.1771 -0.6628,-1.8788 0.1326,-1.5039 1.0805,-2.6075 2.8465,-3.3134 1.1959,-0.4821 2.4976,-0.8926 3.9049,-1.2343 l 0.0814,-0.9483 c 0.1625,-1.8621 -0.3189,-2.843 -1.4455,-2.9407 -1.2824,-0.1128 -1.9542,0.1894 -2.0175,0.9074 -0.0121,0.1542 -0.0121,0.3094 -10e-4,0.4643 0.0129,0.1568 0.009,0.3462 -0.0106,0.5685 -0.0288,0.3245 -0.1647,0.601 -0.4086,0.8297 -0.2439,0.2273 -0.5276,0.3276 -0.8529,0.2985 -0.342,-0.0292 -0.6067,-0.1462 -0.7949,-0.353 -0.1879,-0.2053 -0.2704,-0.4465 -0.2477,-0.7192 0.0814,-0.9221 0.6162,-1.6247 1.605,-2.106 0.8464,-0.409 1.7705,-0.5673 2.779,-0.4802 1.3672,0.1189 2.317,0.4783 2.8495,1.0752 0.5802,0.654 0.8059,1.7163 0.6783,3.1846 l -0.4939,5.6375 c -0.0579,0.6662 0.1174,1.0169 0.5268,1.054 0.3087,0.0265 0.7332,-0.1166 1.2771,-0.4306 z m -4.0204,-1.5653 0.3923,-4.484 c -1.3728,0.3454 -2.3208,0.6579 -2.8449,0.9389 -0.9214,0.504 -1.4221,1.2013 -1.4993,2.089 -0.1246,1.4183 0.4366,2.181 1.6841,2.2908 0.6487,0.0557 1.4047,-0.2208 2.2678,-0.8347 z m 17.8576,2.2352 -5.4251,0.1897 -0.0125,-0.3594 c 1.0812,-0.0382 1.6008,-0.6055 1.5637,-1.7023 l -0.2272,-6.4787 c -0.0228,-0.6336 -0.2239,-1.107 -0.6037,-1.4205 -0.3799,-0.3132 -0.8434,-0.459 -1.3918,-0.4386 -0.9434,0.0311 -1.8678,0.5613 -2.7764,1.5887 l 0.2409,6.9154 c 0.0382,1.0964 0.5987,1.6262 1.6788,1.5879 l 0.0114,0.3602 -5.424,0.1893 -0.0132,-0.359 c 1.0801,-0.0386 1.6023,-0.6063 1.5633,-1.7031 l -0.2435,-6.9664 c -0.0197,-0.5477 -0.1428,-0.8949 -0.3715,-1.0423 -0.2273,-0.1465 -0.6575,-0.1908 -1.2911,-0.1344 l -0.0125,-0.3605 3.7618,-1.3403 0.0739,2.1072 c 1.1331,-1.4475 2.4374,-2.1943 3.9114,-2.2462 1.9704,-0.0701 3.0024,1.199 3.0926,3.8038 l 0.2037,5.8622 c 0.0386,1.0967 0.5991,1.6246 1.6785,1.5887 z m 14.0284,-2.0712 c -1.2331,0.47 -2.4886,1.0714 -3.7675,1.8004 l -0.1609,-1.8443 c -0.7643,1.3069 -1.9076,2.0265 -3.4274,2.1598 -1.0422,0.0913 -2.0261,-0.2443 -2.954,-1.0112 -1.1517,-0.971 -1.8129,-2.42 -1.9807,-4.3412 -0.1477,-1.6955 0.2515,-3.2198 1.2009,-4.5635 0.9495,-1.3448 2.1848,-2.086 3.7042,-2.2182 1.1457,-0.0999 2.0311,0.1833 2.6586,0.8514 l -0.3609,-4.1246 c -0.0507,-0.5813 -0.209,-0.9112 -0.4749,-0.9918 -0.0879,-0.0266 -0.5169,-0.006 -1.2861,0.0609 l -0.0455,-0.512 c 0.7722,-0.2397 2.0194,-0.7283 3.7471,-1.4649 l 1.3001,14.8639 c 0.0458,0.5286 0.2018,0.8422 0.4685,0.9388 0.1617,0.0727 0.6105,0.0769 1.3437,0.0121 z m -4.0235,-1.1274 -0.4813,-5.4884 c -0.0762,-0.8756 -0.3806,-1.5466 -0.9127,-2.0208 -0.5314,-0.4741 -1.1563,-0.6771 -1.8732,-0.6154 -1.0763,0.0939 -1.8701,0.6756 -2.3783,1.7409 -0.4382,0.904 -0.6007,1.9974 -0.4886,3.2873 0.1326,1.5065 0.5325,2.7294 1.1987,3.6557 0.6889,0.9949 1.5376,1.4498 2.5461,1.3623 0.6673,-0.0591 1.174,-0.2231 1.5183,-0.495 0.3465,-0.2757 0.637,-0.7476 0.871,-1.4266 z m 22.6181,-14.7025 -0.601,0.139 c -0.6079,-1.179 -1.0127,-1.8701 -1.2176,-2.069 -0.584,-0.551 -1.444,-0.6957 -2.581,-0.434 l -2.3067,0.5336 3.0903,13.3835 c 0.2579,1.1198 1.2062,1.4898 2.8449,1.1126 l 0.1095,0.4768 -7.4702,1.7236 -0.1091,-0.4764 c 1.6368,-0.3776 2.3269,-1.1271 2.0671,-2.2454 l -3.0892,-13.3854 -2.0065,0.4636 c -1.3009,0.3003 -2.1056,0.821 -2.4109,1.5599 -0.134,0.3306 -0.1946,1.1362 -0.181,2.4173 l -0.6003,0.1402 -0.8347,-4.2966 14.1621,-3.2694 z m 13.6008,4.807 c 0.0773,1.224 -0.2283,2.4037 -0.9165,3.5376 -0.6885,1.1365 -1.5758,1.8905 -2.6627,2.2643 -1.2801,0.4409 -2.5245,0.3333 -3.7281,-0.3211 -1.3304,-0.7033 -2.2996,-1.9387 -2.9089,-3.705 -0.5685,-1.6542 -0.5779,-3.1842 -0.0288,-4.5881 0.551,-1.4035 1.5471,-2.3556 2.9896,-2.8521 1.3138,-0.4522 2.506,-0.3875 3.5773,0.1965 1.0707,0.5836 1.8228,1.4994 2.253,2.748 l -7.5406,2.5953 c 0.5249,1.5247 1.3388,2.6631 2.4423,3.4168 1.1029,0.7544 2.1974,0.9434 3.2835,0.57 0.7787,-0.2682 1.4338,-0.8116 1.9697,-1.6293 0.4905,-0.7317 0.7654,-1.4895 0.8226,-2.27 z m -4.1753,-2.6446 c -0.8029,-1.8087 -1.9019,-2.473 -3.2971,-1.9924 -1.5683,0.5393 -2.1553,1.7853 -1.7614,3.7349 z m 15.6194,-1.6125 c -0.1382,1.4433 -0.3836,2.5521 -0.7381,3.3236 -0.4806,1.1002 -1.2774,1.8742 -2.3901,2.3245 -1.2558,0.5079 -2.5052,0.4571 -3.7501,-0.1499 -1.3338,-0.645 -2.3344,-1.7944 -3.0013,-3.4479 -0.6692,-1.6538 -0.7373,-3.2171 -0.2034,-4.6904 0.5333,-1.4732 1.6187,-2.5396 3.2566,-3.2016 0.9533,-0.3848 1.8724,-0.4787 2.7563,-0.2825 0.8858,0.1977 1.4486,0.5995 1.694,1.2031 0.1152,0.2864 0.1106,0.5746 -0.0113,0.8647 -0.1235,0.2904 -0.3356,0.4968 -0.6382,0.6176 -0.3181,0.1307 -0.6218,0.1231 -0.91,-0.0204 -0.2886,-0.1424 -0.4848,-0.3405 -0.5878,-0.5946 -0.192,-0.4768 -0.5097,-0.8063 -0.9536,-0.9873 -0.4442,-0.1822 -0.9116,-0.1735 -1.4043,0.0257 -1.1607,0.4693 -1.819,1.3362 -1.9742,2.6003 -0.103,0.9301 0.0394,1.8818 0.4306,2.8502 0.5086,1.257 1.2975,2.2045 2.3707,2.8434 1.0729,0.6397 2.1155,0.7548 3.1335,0.342 1.304,-0.5253 2.1413,-1.7519 2.5109,-3.677 z m 14.6654,-2.7912 -4.7942,2.5484 -0.1677,-0.3177 c 0.9528,-0.5079 1.1732,-1.2452 0.657,-2.2129 l -2.8244,-5.3167 c -0.7503,-1.4077 -1.6918,-1.8092 -2.8279,-1.2055 -0.893,0.4742 -1.488,1.3641 -1.7856,2.6684 l 3.2368,6.0867 c 0.5159,0.9696 1.2498,1.2006 2.2034,0.6931 l 0.1701,0.3177 -4.7931,2.5488 -0.1693,-0.3189 c 0.954,-0.5059 1.1733,-1.246 0.6582,-2.2143 l -5.9651,-11.2202 c -0.2822,-0.5299 -0.5499,-0.795 -0.8021,-0.7972 -0.1629,-0.011 -0.5609,0.1526 -1.1964,0.4912 l -0.2185,-0.4091 c 0.5487,-0.5059 1.4914,-1.4334 2.8309,-2.7865 l 3.6709,6.9043 c 0.3776,-1.7735 1.149,-2.9706 2.3155,-3.5906 1.8928,-1.0058 3.4493,-0.359 4.6748,1.9421 l 2.7533,5.1785 c 0.5151,0.9699 1.2509,1.2009 2.203,0.6919 z m 12.3901,-7.0721 -4.7002,2.7139 -0.1803,-0.3117 c 0.9362,-0.5404 1.1297,-1.2854 0.5798,-2.2371 l -3.2403,-5.6125 c -0.3177,-0.5496 -0.7162,-0.8737 -1.1986,-0.9718 -0.4829,-0.0973 -0.962,-0.009 -1.4365,0.2651 -0.8165,0.4719 -1.3857,1.3747 -1.7054,2.7067 l 3.4604,5.992 c 0.5483,0.9517 1.2906,1.1566 2.2261,0.6165 l 0.1814,0.3125 -4.7014,2.7139 -0.1792,-0.3132 c 0.9351,-0.5397 1.129,-1.2854 0.5795,-2.2367 l -3.4853,-6.036 c -0.2735,-0.4749 -0.5473,-0.7237 -0.8169,-0.7468 -0.2704,-0.0224 -0.6719,0.1405 -1.2047,0.4889 l -0.1803,-0.3136 2.6927,-2.9494 1.0547,1.8262 c 0.3215,-1.8092 1.1218,-3.0836 2.3984,-3.8202 1.7088,-0.9869 3.2142,-0.3503 4.5173,1.9076 l 2.9332,5.0786 c 0.5484,0.9506 1.2907,1.1562 2.2261,0.615 z m 7.5512,-12.6873 c 0.9676,1.4788 1.338,3.0123 1.1119,4.5964 -0.2257,1.5842 -1.0073,2.8415 -2.3461,3.7717 -1.2551,0.8699 -2.6423,1.1403 -4.1625,0.8138 -1.5201,-0.3261 -2.7745,-1.1695 -3.7618,-2.529 -1.0172,-1.4009 -1.4539,-2.8336 -1.3081,-4.2962 0.1477,-1.5482 0.9351,-2.8415 2.3647,-3.8792 1.4142,-1.0278 2.8772,-1.402 4.3848,-1.1179 1.5088,0.2798 2.7469,1.1615 3.7171,2.6404 z m -1.3107,2.2238 c -1.0093,-1.3873 -2.0496,-2.37 -3.1248,-2.9445 -1.3229,-0.7132 -2.5188,-0.6825 -3.588,0.095 -0.7487,0.5446 -1.0827,1.2945 -1.0009,2.2541 0.0685,0.8832 0.4605,1.816 1.1774,2.801 0.9669,1.3323 2.0273,2.3094 3.1809,2.9354 1.3323,0.7264 2.479,0.7416 3.4349,0.0466 0.848,-0.6158 1.1922,-1.4808 1.04,-2.598 -0.1208,-0.8653 -0.4946,-1.7296 -1.1195,-2.5896 z m 11.2577,-3.277 -4.6199,4.0166 -0.2364,-0.2715 c 0.9968,-0.868 1.135,-1.7145 0.4155,-2.5431 l -8.4215,-9.6879 c -0.303,-0.3492 -0.57,-0.5374 -0.7999,-0.5651 -0.2287,-0.0295 -0.5048,0.0985 -0.829,0.3791 -0.1685,0.1458 -0.3768,0.3503 -0.626,0.6116 l -0.2541,-0.2897 c 0.5006,-0.707 1.2891,-1.917 2.3696,-3.6277 l 10.2098,11.7451 c 0.72,0.8294 1.5728,0.8154 2.5552,-0.0405 z m 6.3053,-13.3524 c 1.1649,1.3293 1.7455,2.796 1.7413,4.3961 -0.003,1.6012 -0.6037,2.9544 -1.7985,4.061 -1.1222,1.0365 -2.4598,1.4982 -4.0091,1.3861 -1.5497,-0.1117 -2.9089,-0.7734 -4.0765,-1.9818 -1.2024,-1.246 -1.8338,-2.6026 -1.8936,-4.0716 -0.0697,-1.552 0.5313,-2.9438 1.8,-4.1704 1.2597,-1.2153 2.6552,-1.7876 4.189,-1.7194 1.5304,0.0693 2.8809,0.7703 4.0474,2.1 z m -0.9881,2.3836 c -1.1911,-1.2335 -2.3594,-2.0594 -3.5043,-2.481 -1.4103,-0.5214 -2.5904,-0.3238 -3.5391,0.5931 -0.6661,0.6438 -0.8934,1.4338 -0.6786,2.3719 0.1912,0.8646 0.7093,1.7342 1.5557,2.6097 1.1441,1.185 2.3284,2.0065 3.5581,2.4643 1.4228,0.5344 2.5582,0.3897 3.4088,-0.4321 0.7533,-0.7263 0.9763,-1.6319 0.6669,-2.7169 -0.2386,-0.8407 -0.7294,-1.6451 -1.4675,-2.409 z m 6.7684,-15.244 -1.3725,1.6349 c 0.6424,0.1136 1.2869,0.4412 1.9304,0.9827 0.9191,0.7707 1.4107,1.6914 1.4736,2.7643 0.0632,1.0706 -0.3072,2.0859 -1.1116,3.0464 -0.3086,0.3677 -0.6461,0.6881 -1.0108,0.9638 -0.1624,1.0721 -0.0522,1.7697 0.3284,2.0894 0.4071,0.3423 1.294,-0.3019 2.6605,-1.93 1.3239,-1.5773 2.3855,-2.5093 3.1887,-2.7983 0.7556,-0.2621 1.5615,-0.0337 2.414,0.6828 0.882,0.7378 1.182,1.9413 0.9013,3.6084 -0.2749,1.5827 -0.9471,3.0108 -2.0178,4.2856 -0.8809,1.0509 -1.8595,1.6841 -2.9369,1.8996 -0.8722,0.1863 -1.5243,0.0977 -1.9595,-0.2662 -0.3673,-0.3087 -0.5552,-0.8582 -0.5635,-1.6482 -0.0296,-0.7392 -0.0504,-1.4758 -0.0648,-2.2034 -0.3102,0.2087 -0.6499,0.3386 -1.0168,0.3894 -0.3663,0.05 -0.6416,-0.002 -0.8249,-0.1557 -0.4079,-0.3435 -0.6499,-0.893 -0.7286,-1.6535 -0.0349,-0.3862 -0.0186,-1.032 0.0492,-1.939 -1.5626,0.7934 -2.9729,0.662 -4.2352,-0.3961 -0.8794,-0.7393 -1.3558,-1.6861 -1.4259,-2.8427 -0.0704,-1.1566 0.3454,-2.2738 1.2498,-3.3505 0.3852,-0.4601 0.9809,-0.9164 1.7879,-1.3709 0.8059,-0.4541 1.3248,-0.8305 1.5528,-1.1297 l 0.9634,-1.3081 z m -0.0458,4.6964 c -0.7877,-0.6624 -1.6281,-1.0873 -2.5219,-1.2782 -1.0165,-0.2029 -1.7826,0.005 -2.2999,0.6223 -0.4306,0.512 -0.5696,1.0509 -0.4174,1.616 0.1542,0.5646 0.5314,1.0763 1.1301,1.5349 0.8502,0.6684 1.6834,1.088 2.5026,1.2604 0.9786,0.1939 1.7387,-0.0307 2.278,-0.6745 0.8267,-0.9851 0.6036,-2.0114 -0.6715,-3.0809 z m 8.4158,3.5353 c -0.5112,-0.4298 -1.1653,-0.3177 -1.9602,0.3363 -0.3988,0.3147 -1.0612,1.0241 -1.9864,2.1265 -0.718,0.8551 -1.4164,1.5561 -2.0988,2.1015 0.1306,1.2066 0.4245,2.0015 0.8847,2.3878 0.9449,0.7938 2.2298,0.2253 3.8492,-1.7073 0.993,-1.1812 1.5823,-2.2863 1.7736,-3.3133 0.1662,-0.8904 0.0117,-1.5342 -0.4621,-1.9315 z m -0.5328,-19.914 c -0.1591,0.203 -0.1659,0.5446 -0.0209,1.0286 0.1076,0.3901 0.2568,0.7438 0.4416,1.0638 l 6.1697,10.2382 c 1.4577,2.4234 1.6898,4.2693 0.698,5.5395 -0.7711,0.9869 -1.5812,1.1471 -2.434,0.4821 -0.242,-0.1886 -0.3432,-0.4647 -0.3026,-0.8245 0.0371,-0.2976 0.1499,-0.5688 0.3412,-0.8112 0.1159,-0.1481 0.4189,-0.3692 0.9085,-0.6616 0.2398,-0.1401 0.4325,-0.303 0.5798,-0.4923 0.5064,-0.6484 -0.0405,-2.0777 -1.6443,-4.2875 l -9.713,-2.2351 c -0.6783,-0.1602 -1.1149,-0.2288 -1.3073,-0.2061 -0.303,0.0254 -0.6416,0.1958 -1.0172,0.5105 l -0.2852,-0.2219 3.2626,-4.1753 0.2844,0.2211 c -0.6237,0.798 -0.7521,1.3392 -0.3881,1.6244 0.1889,0.1473 0.4484,0.2628 0.7733,0.3476 l 7.1604,1.7251 -3.6974,-5.7815 c -0.3325,-0.5219 -0.5601,-0.8305 -0.6813,-0.9244 -0.1227,-0.0951 -0.3022,-0.1004 -0.5427,-0.0167 -0.2398,0.0844 -0.4821,0.2821 -0.7249,0.5923 l -0.2818,-0.2208 2.1368,-2.7355 z m 13.63,-12.2889 c 1.502,0.9305 2.4874,2.1628 2.9517,3.6947 0.4654,1.5312 0.2871,3.0017 -0.5332,4.4105 -0.77,1.3184 -1.9118,2.1508 -3.4274,2.495 -1.5156,0.3484 -3.0085,0.1133 -4.478,-0.701 -1.516,-0.8407 -2.5154,-1.9545 -3.0009,-3.3402 -0.5223,-1.4653 -0.353,-2.9715 0.5018,-4.5147 0.8483,-1.5304 2.0148,-2.4863 3.5016,-2.8684 1.4868,-0.3825 2.982,-0.1072 4.4844,0.8241 z m -0.2473,2.5688 c -1.5001,-0.8324 -2.8589,-1.2801 -4.0765,-1.3471 -1.5005,-0.0875 -2.5719,0.4469 -3.2115,1.6012 -0.4492,0.8101 -0.434,1.6315 0.0454,2.4655 0.4348,0.7706 1.1846,1.4523 2.2503,2.0416 1.4392,0.798 2.8139,1.2373 4.1235,1.3149 1.516,0.0962 2.5605,-0.3742 3.1339,-1.4092 0.5078,-0.9138 0.4556,-1.8466 -0.156,-2.7923 -0.4761,-0.7354 -1.1786,-1.3599 -2.1091,-1.8746 z m 16.3988,-31.2478 c 1.3028,2.5397 1.466,5.082 0.4885,7.6273 -0.9464,2.4658 -2.5139,4.1322 -4.7025,5.0006 -2.0947,0.8131 -4.317,0.7673 -6.6711,-0.136 -2.3049,-0.885 -3.9708,-2.3973 -4.996,-4.5343 -1.0244,-2.1398 -1.0945,-4.3613 -0.2102,-6.6666 0.3628,-0.9449 0.8809,-1.853 1.5554,-2.7248 0.6733,-0.8703 1.0327,-1.3615 1.0763,-1.4736 0.1818,-0.4264 0.002,-0.8427 -0.5385,-1.2543 l 0.2018,-0.5276 5.5115,1.8675 -0.231,0.6002 c -1.4558,-0.2279 -2.7692,-0.0242 -3.9387,0.609 -1.1714,0.6344 -2.0148,1.6224 -2.5321,2.968 -0.6889,1.7925 -0.5215,3.4653 0.5011,5.0142 0.971,1.4387 2.5305,2.5703 4.676,3.3941 2.0969,0.8051 4.0151,0.952 5.7527,0.4446 1.7383,-0.5087 2.9396,-1.6266 3.6038,-3.3562 0.5598,-1.4566 0.7283,-2.8801 0.5079,-4.2681 -0.078,-0.5636 -0.3193,-1.3452 -0.7268,-2.3454 z m 6.12,-13.0793 -1.4054,5.2437 -0.3476,-0.0936 c 0.2791,-1.043 -0.1099,-1.7076 -1.1695,-1.9913 l -5.8156,-1.558 c -1.5414,-0.4117 -2.4768,8e-4 -2.8085,1.2441 -0.2625,0.9782 -0.0182,2.02 0.7309,3.1263 l 6.6608,1.7856 c 1.0604,0.2825 1.7289,-0.0969 2.0088,-1.1392 l 0.348,0.0917 -1.4035,5.2433 -0.35,-0.0935 c 0.2807,-1.0438 -0.1094,-1.7073 -1.1691,-1.9917 l -12.2745,-3.2888 c -0.5802,-0.1552 -0.9567,-0.1397 -1.1305,0.0428 -0.1174,0.1106 -0.27,0.5139 -0.4579,1.2096 l -0.4465,-0.12 c 0.005,-0.7446 -0.0322,-2.0678 -0.1079,-3.9705 l 7.5539,2.0247 c -1.0404,-1.4865 -1.3895,-2.8665 -1.0483,-4.1432 0.5559,-2.0697 2.0916,-2.768 4.6101,-2.0932 l 5.6648,1.5176 c 1.0601,0.2836 1.7311,-0.0959 2.0106,-1.1388 z m -14.8047,-9.1608 c 0.3722,0.0652 0.6532,0.2462 0.846,0.5408 0.1913,0.295 0.2545,0.6276 0.1886,1.0006 -0.0655,0.37 -0.2363,0.6548 -0.515,0.8491 -0.278,0.1946 -0.6026,0.259 -0.9752,0.1931 -0.3708,-0.0655 -0.6624,-0.2382 -0.8737,-0.52 -0.2125,-0.281 -0.2856,-0.6078 -0.2189,-0.9782 0.0655,-0.3726 0.2461,-0.6608 0.5446,-0.871 0.2984,-0.2076 0.632,-0.2791 1.0036,-0.2144 z m 16.3003,0.8889 -1.0593,6.0037 -0.3548,-0.0628 c 0.2272,-1.2839 -0.2008,-2.0209 -1.2809,-2.211 l -6.79,-1.1975 c -0.8782,-0.1549 -1.3739,0.0898 -1.4872,0.7306 -0.0439,0.2541 -0.0337,0.5866 0.0326,0.9994 l -0.3799,-0.0678 -0.6479,-4.32 9.6519,1.7027 c 1.0797,0.1894 1.7338,-0.3556 1.9599,-1.6398 z m 2.1276,-14.1856 -0.6605,5.3872 -0.3578,-0.0428 c 0.1317,-1.0732 -0.347,-1.6765 -1.4369,-1.8102 l -6.4329,-0.7893 c -0.6305,-0.0768 -1.1297,0.0466 -1.4974,0.3727 -0.3689,0.3268 -0.5867,0.7624 -0.6529,1.3069 -0.1152,0.9351 0.2632,1.9334 1.135,2.9896 l 6.8684,0.8438 c 1.0899,0.1345 1.6989,-0.3363 1.8322,-1.4077 l 0.3575,0.044 -0.662,5.3876 -0.3567,-0.0451 c 0.1303,-1.0718 -0.3484,-1.6743 -1.4376,-1.808 L 387.4786,250.6 c -0.545,-0.0663 -0.9085,0.001 -1.0884,0.203 -0.1795,0.203 -0.2905,0.6215 -0.3344,1.2554 l -0.3575,-0.0447 -0.7363,-3.9261 2.0943,0.2575 c -1.2516,-1.3456 -1.7883,-2.7506 -1.6084,-4.2147 0.2405,-1.9572 1.6546,-2.7764 4.2409,-2.4601 l 5.8216,0.715 c 1.0896,0.1337 1.7001,-0.3348 1.8323,-1.4058 z m -0.6158,-12.8138 c 0.2844,0.3491 0.5715,0.6968 0.8559,1.0441 0.3026,0.4166 0.4492,0.8222 0.442,1.216 -0.0189,1.0472 -0.6802,1.6357 -1.986,1.7668 0.5052,0.5745 0.9476,1.2266 1.3304,1.953 0.3806,0.7275 0.5681,1.3054 0.5609,1.733 -0.0136,0.7548 -0.2787,1.4016 -0.7942,1.9417 -0.5139,0.54 -1.1244,0.804 -1.8269,0.793 -1.5092,-0.0284 -2.6771,-0.8968 -3.5054,-2.6101 -0.5616,-1.1585 -1.063,-2.4276 -1.5024,-3.8069 l -0.9513,-0.0178 c -1.8686,-0.031 -2.8127,0.517 -2.8328,1.6497 -0.0227,1.2854 0.3261,1.9341 1.0456,1.9466 0.1546,0.002 0.3098,-0.007 0.4632,-0.0303 0.156,-0.0231 0.3454,-0.0325 0.5681,-0.0284 0.3249,0.005 0.6105,0.1227 0.8555,0.3488 0.2454,0.228 0.364,0.5037 0.3594,0.8302 -0.006,0.3435 -0.1064,0.615 -0.2992,0.818 -0.1912,0.2026 -0.4253,0.3015 -0.6991,0.2969 -0.9256,-0.017 -1.6641,-0.5007 -2.2132,-1.4535 -0.4651,-0.8154 -0.6893,-1.7292 -0.673,-2.7393 0.0243,-1.3724 0.317,-2.3442 0.8752,-2.9164 0.6113,-0.6245 1.655,-0.9241 3.1286,-0.8999 l 5.6584,0.1008 c 0.6681,0.0117 1.0066,-0.1886 1.0127,-0.6011 0.006,-0.3086 -0.167,-0.7229 -0.5177,-1.2429 z m -1.2812,4.1208 -4.501,-0.0803 c 0.4389,1.3463 0.8184,2.2715 1.135,2.7729 0.5681,0.8843 1.2975,1.335 2.1882,1.3505 1.4232,0.025 2.1462,-0.5892 2.167,-1.8405 0.0129,-0.651 -0.3166,-1.3854 -0.9892,-2.2026 z"
     style="fill:#004394;fill-rule:evenodd"
     id="path8" />
  <path
     d="m 291.4183,268.6828 c 27.4806,-63.1719 2.8092,-103.0415 -50.741,-124.1927 32.0958,12.9809 25.3018,52.7459 12.5113,72.8843 -12.7904,20.1383 -34.5738,36.4481 -68.9354,51.9168 36.8029,-14.3828 59.7923,-33.365 70.5082,-51.1267 10.7158,-17.7616 12.6733,-33.1958 9.7666,-50.5195 16.6375,35.5114 2.6073,66.7704 -30.0367,97.8092 37.8463,-32.5842 50.1224,-67.6802 28.7175,-103.995 31.8282,34.9185 23.2299,72.2726 1.2982,105.5548 26.9854,-37.3855 31.6439,-76.9377 -4.1474,-110.9225 43.0341,26.336 49.1416,62.3368 31.0587,112.5913 z"
     style="fill:#004394;fill-rule:evenodd"
     id="path10" />
  <path
     d="m 231.1379,147.7281 c -7.6304,-7.8974 -14.0115,-12.708 -23.9101,-17.7273 14.0995,0.182 30.9833,3.5308 41.8914,6.5828 -11.426,-1.3221 -16.5483,-0.1643 -19.1083,1.5976 -2.559,1.7614 -1.6055,4.6421 1.127,9.5469 z"
     style="fill:#004394;fill-rule:evenodd"
     id="path12" />
  <path
     d="m 232.4951,290.5534 c 0.2208,-5.2205 0.7368,-8.6664 8.1909,-10.455 7.4541,-1.7885 15.6637,-1.5677 29.3641,0.6416 13.7003,2.2094 24.6889,3.1818 38.2189,1.8986 -4.5896,-2.9852 -5.9764,-4.4127 -7.7934,-7.8513 -11.8303,0.2496 -19.6672,-0.5749 -29.5264,-3.5878 -9.8592,-3.0128 -21.4753,-6.1212 -29.0321,-5.3284 -7.5567,0.7929 -12.5092,4.9993 -15.1446,14.2247 -2.6354,-9.2254 -7.5879,-13.4318 -15.1446,-14.2247 -7.5567,-0.7928 -19.1729,2.3156 -29.0321,5.3284 -9.8591,3.0129 -17.6961,3.8374 -29.5264,3.5878 -1.8169,3.4386 -3.2037,4.8661 -7.7934,7.8513 13.53,1.2832 24.5187,0.3108 38.219,-1.8986 13.7003,-2.2093 21.9099,-2.4301 29.364,-0.6416 7.4541,1.7886 7.9701,5.2345 8.1909,10.455 z"
     style="fill:#004394;fill-rule:evenodd"
     id="path14" />
  <path
     d="m 226.7727,120.4718 c 58.6954,0 106.2986,47.5995 106.2986,106.2994 0,58.6968 -47.6032,106.2968 -106.2986,106.2968 -58.6985,0 -106.2992,-47.6 -106.2992,-106.2968 0,-58.6999 47.6007,-106.2994 106.2992,-106.2994 z m 0,3.5436 c 56.7389,0 102.755,46.0129 102.755,102.7558 0,56.7398 -46.0161,102.7532 -102.755,102.7532 -56.7415,0 -102.7556,-46.0134 -102.7556,-102.7532 0,-56.7429 46.0141,-102.7558 102.7556,-102.7558 z"
     style="fill:#004394;fill-rule:evenodd"
     id="path16" />
  <path
     d="m 348.2116,127.3254 c 2.2283,3.2619 0.8664,10.1611 -2.2536,12.2322 -0.779,-0.484 -4.1895,-0.1128 -4.5896,-1.967 -0.341,-2.2204 1.6263,-3.283 2.4731,-5.3568 0.8047,-1.9707 0.4313,-4.2825 1.0472,-5.9594 0.0313,0.0421 0.0625,0.0841 0.0938,0.1262 1.2644,-0.4076 2.0857,0.3194 3.2291,0.9248 z m 15.3635,-20.1141 c 0.6591,0.8738 1.4585,1.7929 1.5267,2.5811 0.1581,1.8318 -4.5255,5.3303 -7.0018,7.1564 -0.8225,0.607 -2.5348,0.9366 -2.8021,1.8865 1.3499,1.0308 2.7329,2.5822 4.3646,3.1116 0.22,-0.0982 0.4402,-0.1966 0.6605,-0.2949 0.341,-0.7071 0.2871,-1.4 0.6373,-2.0374 0.2939,-0.2183 0.588,-0.4369 0.8819,-0.6552 0.1089,0.1466 0.2183,0.2939 0.3276,0.441 -0.478,1.9686 0.7435,4.088 2.1544,5.9267 0.3451,0.4495 0.1908,0.8889 0.6212,1.494 -0.2189,0.2979 -0.2027,0.2008 -0.0812,0.549 -0.4198,0.3119 -0.8399,0.624 -1.2599,0.936 -0.4506,-0.1277 -1.0105,0.083 -1.4435,-0.1008 -0.7027,-0.6829 -1.4065,-1.3668 -2.1093,-2.0497 -3.3979,-1.7952 -6.8129,-4.5504 -10.3984,-5.1803 -2.9891,2.1465 -9.3966,3.8646 -12.0989,2.9271 -2.1317,-0.7398 -4.7258,-4.8449 -2.4661,-6.4783 0.021,-0.0156 0.0421,-0.0312 0.0628,-0.0466 0.6608,0.2374 1.4417,0.228 2.117,0.4808 0.865,0.7256 1.7304,1.4518 2.5958,2.1779 1.277,0.6996 5.5216,0.0193 6.9404,-0.659 0.079,-0.1566 0.1583,-0.3134 0.2374,-0.47 -1.7694,-3.8774 -4.7718,-3.3104 -3.3063,-8.0039 0.1034,-0.3323 0.3079,-1.7378 1.2634,-1.7209 0.2474,0.0343 0.3787,0.2233 0.5937,0.5363 0.3883,1.2031 0.9748,2.8663 1.9925,3.6034 0.3643,0.4465 0.7286,0.893 1.0929,1.3395 0.8294,0.5658 2.3532,1.9099 3.3029,1.9454 1.2514,0.0469 8.0578,-5.1391 8.7564,-6.5049 0.4088,-0.7997 0.4282,-2.5842 1.7873,-2.9897 0.3502,0.0327 0.7008,0.0659 1.0508,0.0989 z"
     style="fill:#004394;fill-rule:evenodd"
     id="path18" />
  <path
     d="m 395.4498,155.0048 c 1.2547,2.3535 -0.8933,4.5277 0.6427,6.6067 0.4146,0.083 0.2928,0.3665 0.6748,0.6978 1.383,1.2001 5.117,2.5242 5.134,5.2825 0.009,1.5202 -2.7529,4.0808 -4.551,3.2613 -0.4134,-0.3014 -3.0392,-3.4252 -3.0729,-3.7531 -1.9203,-1.4292 -4.1074,-2.3805 -6.0799,-3.4675 -0.0322,0.0489 -0.0643,0.0976 -0.0965,0.1465 0.0261,0.0454 0.0523,0.0907 0.0782,0.1356 0.2881,0.9181 1.6083,2.1287 1.7189,3.4481 0.2914,3.471 0.8219,7.1774 -2.9278,9.2118 -0.4444,-0.2746 -1.1268,-0.3839 -1.5899,-0.7133 -0.9775,-0.6957 -2.6289,-3.2672 -3.6534,-2.875 -1.3613,2.7956 -6.0356,0.8715 -8.4154,0.9626 -0.3911,0.4552 -0.6598,0.8708 -0.6166,1.4434 0.3923,0.6794 0.7846,1.359 1.1772,2.039 0.7839,0.6038 4.3059,3.2264 4.4799,4.9341 0.2027,1.9879 -2.2839,3.0812 -3.9313,2.4512 -1.08,-1.9977 -1.5102,-4.006 -3.8787,-5.4626 -0.7535,-0.4637 -0.6827,-1.0637 -1.4464,-1.2499 -1.4086,0.8029 -2.2379,1.6499 -3.9208,2.6267 -4.594,-2.1512 -8.2654,-5.485 -6.8247,-11.1934 0.2872,-1.1374 0.6134,-2.5556 1.7271,-3.4436 0.8167,1.5294 0.2534,3.409 0.4015,4.9334 0.2914,0.5569 0.5827,1.1139 0.8737,1.6704 1.7986,3.1159 3.9791,3.7043 6.4434,4.2543 0.1455,-0.1142 0.2912,-0.2286 0.4366,-0.3428 0.0802,-0.2272 0.1602,-0.4547 0.2402,-0.6824 -0.3924,-0.6795 -0.7847,-1.359 -1.1773,-2.039 -0.4533,-0.4885 -1.62,-1.4705 -2.2956,-1.9361 -1.3516,-0.9321 -4.1348,-6.4504 -3.6656,-7.7616 0.1785,-0.4977 0.6924,-0.7966 1.2023,-1.0563 0.3346,0.1085 0.6695,0.2177 1.0041,0.3262 1.6516,1.121 1.8749,4.1696 3.4815,5.8736 0.9492,1.0064 3.0593,1.9152 3.6563,3.5077 0.2953,0.107 0.5579,0.153 0.8576,0.2293 1.7277,-1.848 2.8235,-1.551 4.8311,-1.5201 0.3951,0.006 1.6864,-0.2027 1.7305,-0.4554 0.2391,-1.0522 -1.964,-2.0805 -2.5525,-2.6947 -0.2616,-0.4532 -0.5232,-0.9063 -0.7849,-1.3595 2.8948,-1.9885 4.0285,0.8598 6.1161,2.9028 0.871,0.8517 2.2073,1.355 3.1722,1.8839 0.8932,0.4898 2.6157,1.4771 3.4458,0.004 0.3621,-0.6428 -0.0421,-1.246 -0.0869,-2.0339 -0.2369,-4.1614 -5.4775,-6.9271 -8.4262,-8.0023 -1.1151,-0.4068 -3.3479,-1.6259 -4.6224,0.3124 0.006,0.4121 -0.5277,1.7543 -0.5277,1.7543 -1.1834,1.2233 -2.5209,0.9914 -3.5473,1.2328 -0.3699,-0.4511 -0.5612,-0.3997 -0.9389,-0.9984 0.1891,-0.3732 0.2527,-1.1735 0.2555,-1.5979 -0.5768,-0.258 -0.9258,-0.5367 -1.2421,-1.367 0.2311,-0.9943 4.5551,-6.236 5.6375,-6.2449 2.4017,1.5858 4.6184,1.9866 7.0702,2.9864 0.8857,0.6964 1.7714,1.3935 2.6571,2.0905 1.9487,0.8543 4.1694,1.1429 6.2177,1.6661 2.5262,0.6448 4.3391,2.8943 6.8667,3.1039 0.0418,-0.0846 0.0834,-0.1692 0.1253,-0.2538 -0.0131,-0.0228 -0.0262,-0.0454 -0.0393,-0.0681 -1.6836,-0.5648 -5.5741,-2.4758 -5.0555,-5.1464 0.282,-1.4494 2.3821,-2.1713 2.0171,-3.8832 0.3529,-0.1734 0.7057,-0.3469 1.0588,-0.5205 0.1981,0.0899 0.3105,0.1365 0.5359,0.1435 z m 2.9622,-8.0534 c 0.1571,0.2722 0.314,0.544 0.4709,0.8157 -1.6829,1.8694 -6.7126,7.1857 -9.9484,6.4689 -2.056,-1.9965 0.717,-5.1991 3.1248,-6.5162 1.4065,0.9232 4.3781,-0.6781 6.3527,-0.7684 z"
     style="fill:#004394;fill-rule:evenodd"
     id="path20" />
  <path
     d="m 303.9096,87.6636 c -0.9318,0.2569 -4.2304,2.2544 -4.2209,3.5437 0.0228,0.0131 0.0454,0.0262 0.0681,0.0393 3.3964,2.146 5.4856,-0.3443 4.5606,-3.3475 -0.1361,-0.0786 -0.2722,-0.1572 -0.4078,-0.2355 z M 319.403,70.8733 c 0.3267,0.2188 0.6533,0.4377 0.9799,0.6564 -0.1553,1.5751 -1.3468,6.1356 -2.5251,7.5133 -0.7612,0.8891 -3.3505,2.9819 -3.4445,4.0826 0.006,0.094 0.0117,0.1879 0.0178,0.2822 1.6868,0.9963 3.619,0.9949 4.7506,-0.0667 0.6428,-0.6023 0.1351,-1.2333 0.7276,-1.5733 0.8192,0.6626 4.1327,3.1935 4.1977,3.8732 0.0445,0.5388 -0.5651,1.1334 -0.7849,1.3595 -3.3272,-1.5911 -6.07,-0.7505 -9.2267,-0.3431 -1.0181,0.1315 -1.5964,-0.9586 -2.5093,-0.3613 -1.3516,0.883 -3.3708,4.8173 -4.1434,5.7633 0.0741,0.1335 0.1484,0.2668 0.222,0.4001 2.2923,0.9121 4.4212,-2.1669 6.3554,2.4911 0.5809,1.4 -0.8613,2.3899 -1.4106,4.1695 -0.4,1.2947 0.4841,3.1599 0.1734,4.7217 -0.6635,3.3367 -5.5168,2.1835 -6.9311,0.0763 -0.9703,-1.8793 1.7487,-5.7685 0.5622,-8.1935 -0.2298,-0.0722 -0.46,-0.145 -0.6898,-0.2172 -3.3547,2.0283 -3.6488,6.8936 -6.0189,9.4833 -0.0585,-0.004 -0.117,-0.007 -0.1754,-0.0106 -1.9739,-1.663 -1.1721,-4.7921 -0.0161,-7.3491 0.5342,-1.1808 1.765,-1.2666 1.8414,-2.5619 -0.7841,-0.7618 -2.5116,-1.474 -3.5475,-1.2325 -0.9558,0.2231 -1.5281,1.383 -2.4029,1.9654 -1.6056,1.0687 -4.0017,2.3183 -5.8809,2.4949 -0.7125,-0.463 -1.2269,-1.2193 -1.5787,-1.8174 0.7994,-1.5238 0.5003,-1.8835 0.2677,-3.2889 1.1978,-1.1943 2.781,-2.6867 3.4477,-4.7154 3.8631,-0.5155 7.5215,-2.8663 11.5174,-2.6841 1.4371,0.0654 2.3568,2.6547 3.9447,1.6434 0.1439,-0.2492 0.2879,-0.4985 0.4318,-0.7478 -0.0604,-0.3669 -0.1201,-0.7337 -0.1803,-1.1008 -0.8345,-0.3054 -1.4466,0.1146 -2.2089,-0.0971 -3.1117,-0.8655 -3.0016,-4.2827 -1.2871,-6.0895 0.0227,0.0131 0.0454,0.0262 0.0676,0.039 0.9372,1.6912 3.931,3.1378 5.9629,3.1708 0.6821,-0.5373 1.4139,-1.2247 2.0921,-2.0545 0.585,-0.9608 1.1702,-1.922 1.7553,-2.883 1.1703,-1.102 2.0844,-1.9579 3.1277,-2.9063 0.4101,-0.373 1.5546,-3.1195 2.1005,-3.9527 0.1394,0.0204 0.2791,0.0406 0.4187,0.0607 z m 5.8657,3.0239 c 2.0346,1.5679 4.1641,2.6598 5.332,4.891 0.1435,0.274 0.9221,2.2887 0.7783,2.2617 -0.8443,3.572 -4.552,3.1538 -6.2826,0.994 0.3279,-0.7099 0.447,-1.3353 0.0764,-1.8589 -0.2462,-0.2022 -0.4917,-0.4044 -0.7371,-0.6066 1.0212,-2.0258 -0.8463,-4.1936 0.833,-5.6812 z"
     style="fill:#004394;fill-rule:evenodd"
     id="path22" />
  <path
     d="m 200.8444,48.3832 c -0.1537,0.1438 -0.3078,0.2881 -0.4614,0.4322 0.069,0.0641 0.1374,0.1283 0.2066,0.1927 0.1468,-0.0619 0.2937,-0.1236 0.4399,-0.1853 0.0269,-0.1137 0.0537,-0.2275 0.0805,-0.3415 -0.0375,-0.045 -0.0752,-0.0899 -0.1126,-0.1344 -0.051,0.0121 -0.102,0.0242 -0.153,0.0363 z m 0.1466,-1.0836 c -0.0582,0.0947 -0.1167,0.189 -0.1749,0.2835 0.0993,0.1916 0.1986,0.383 0.298,0.5748 0.1851,-0.1247 0.3708,-0.2496 0.5559,-0.3743 -0.0301,-0.1271 -0.0603,-0.2542 -0.0906,-0.3817 -0.0376,-0.0449 -0.0745,-0.09 -0.1121,-0.1345 -0.159,0.0107 -0.3179,0.0216 -0.4763,0.0322 z m 2.1762,-3.7428 c 2.0927,-0.3874 4.4945,0.4549 5.947,0.9273 0.0293,0.3558 0.2652,0.8571 0.0425,1.1998 -1.0129,2.6097 -5.9903,3.1419 -7.3941,5.5463 1.1909,1.1712 2.2738,0.3224 3.8164,0.7876 2.2818,0.6882 7.4404,5.8018 5.1455,9.1029 -0.6089,0.8758 -2.0975,1.4793 -2.8626,2.2119 -1.016,0.9734 -3.1368,-0.2288 -3.5416,1.7279 0.1243,0.7504 0.2485,1.5007 0.3727,2.2506 -0.5018,1.5323 -1.7437,2.4887 -1.9734,4.2594 0.5151,0.5157 1.1167,0.4389 1.8972,0.5176 0.5917,-0.5197 0.5455,-0.8364 0.6846,-1.5336 1.731,-0.4534 5.2041,-0.4455 6.5291,-0.0174 0.6131,0.1979 1.2488,1.6811 1.5325,2.3785 -0.2797,0.3625 -0.4114,1.0685 -0.9496,1.4353 -1.9856,1.4468 -4.1852,-1.5835 -5.9802,0.2905 -1.2443,1.2982 1.5902,4.082 1.1086,6.0281 -1.1125,4.4917 -9.3803,3.3731 -12.1696,2.0822 0.0328,-0.0885 0.0657,-0.1767 0.0986,-0.265 3.0375,-2.0233 7.7538,-2.2416 8.3687,-5.8584 -0.1388,-0.12 -0.1037,-0.1074 -0.2831,-0.1748 -2.2663,-0.3156 -4.069,1.8167 -6.2651,1.8101 -0.8162,-0.0027 -2.2713,0.2522 -3.0067,-0.093 -0.3898,-0.2841 -0.7796,-0.5678 -1.17,-0.8514 0.0402,-0.1711 0.0804,-0.3418 0.1207,-0.5126 1.7893,-0.3847 8.3215,-2.5661 8.5489,-3.4005 -0.0363,-0.1529 -0.0725,-0.3056 -0.1088,-0.4583 -0.6529,-0.5817 -0.7608,-0.2422 -1.3955,-1.1205 0.0122,-0.8369 -0.2448,-1.4936 -0.0493,-2.2466 0.3288,-1.2647 1.1422,-2.5659 0.8685,-4.1587 -0.1496,-0.1293 -0.1835,-0.1645 -0.3783,-0.2326 -1.6604,-0.5764 -3.691,3.0738 -5.1466,3.8025 -0.012,-0.0506 -0.0241,-0.1016 -0.0362,-0.1526 -0.5507,-0.6349 -0.357,-1.6279 -0.2567,-2.4394 0.3853,-3.118 3.5547,-4.7963 6.4734,-3.311 1.7274,-0.3641 2.4202,-1.3875 3.339,-2.2445 0.7397,-0.6905 1.8144,-1.3994 2.1971,-2.2963 1.2193,-2.8554 -3.1382,-4.6473 -4.9301,-4.7984 -2.9504,-0.2492 -4.8355,3.3037 -5.7467,4.6712 -1.0593,1.5901 -2.0904,3.5672 -3.3337,4.9855 -1.0081,1.1504 -1.9524,2.0382 -2.4962,3.4156 -0.8126,2.0592 -0.54,4.9695 -1.037,7.183 -3.9655,1.035 -5.6239,-2.4126 -5.9291,-5.6097 -0.0152,-0.1556 1.8949,-2.1089 2.2595,-2.7142 0.6888,-1.4 1.378,-2.8009 2.0673,-4.201 0.985,-1.5189 2.6716,-2.9922 3.8967,-4.3128 1.8133,-1.9545 5.7775,-4.2983 6.9297,-6.4844 -0.006,-0.0255 -0.0121,-0.0509 -0.0182,-0.0764 -1.8556,-0.2957 -4.4308,-0.5465 -5.6298,-1.9705 0.0134,-0.0568 0.0262,-0.1137 0.0396,-0.1707 4.6774,-0.1857 7.5489,-2.8913 9.8044,-4.9085 z m -17.9244,2.6421 c 0.3839,0.0572 0.4673,0.1674 0.7379,0.3892 0.1727,1.076 2.5376,4.684 3.4832,4.8194 0.1416,1.8195 0.8664,2.2611 -0.5005,3.6675 -3.8775,0.3046 -4.7414,-1.5802 -4.9181,-5.7688 -0.0493,-1.1507 -0.6204,-1.6697 -0.4097,-2.4034 0.536,-0.2346 1.0719,-0.4695 1.6072,-0.7039 z"
     style="fill:#004394;fill-rule:evenodd"
     id="path24" />
  <path
     d="m 257.0119,60.5158 c -2.0601,0.6439 -2.922,2.1565 -4.3072,3.7138 -1.862,2.0931 -6.0641,5.7428 -4.1795,9.8686 0.9085,1.9896 3.7268,4.4019 6.8799,3.502 0.7722,-0.2199 0.9157,0.0592 1.4351,-0.4681 -0.8608,-1.6749 -1.7854,-6.0938 -3.1403,-7.1547 0.0348,-0.0472 0.0695,-0.0943 0.1036,-0.1412 0.8763,0.1518 1.7532,0.3038 2.6295,0.4557 0.9892,0.5747 4.3434,2.8166 5.2215,2.4978 0.5932,-2.1432 2.1545,-5.0305 1.1025,-6.818 -0.2626,-0.0189 -0.5246,-0.0377 -0.7871,-0.0569 -0.9184,0.5104 -1.4309,2.0646 -2.3383,2.4621 -0.8695,0.3814 -1.1781,-1.2202 -1.2915,-1.7369 -0.4529,-2.0637 0.1223,-3.2952 0.1277,-5.7921 -0.4853,-0.1107 -0.9706,-0.2213 -1.4559,-0.3321 z m 9.2727,-9.3843 c -0.8608,1.3455 -2.3325,3.6002 -2.4073,5.1581 0.0472,0.0347 0.0943,0.0695 0.1415,0.1042 1.1847,0.194 4.0127,-0.6037 4.8197,-1.156 0.2796,-1.6693 -1.277,-3.0634 -2.09,-4.0259 -0.1548,-0.0269 -0.3097,-0.0537 -0.4639,-0.0804 z m -2.6769,-7.0744 c 2.4641,0.4075 3.7461,1.5336 3.4982,3.7122 -0.081,0.7149 -0.823,1.4493 -0.402,2.3198 0.9214,1.9044 4.0742,3.1352 6.6581,3.8618 -0.011,0.3699 -0.0219,0.7397 -0.0328,1.1096 -1.3156,1.7841 -4.3033,2.1158 -6.1363,3.2373 -0.5891,0.3606 -0.9344,1.2423 -1.6093,1.4735 -1.9206,0.658 -3.7466,-0.0455 -4.3386,2.5137 1.0774,1.5286 4.2925,1.4675 4.9199,3.3215 0.3038,0.896 -0.0136,4.5799 -0.6045,5.7893 -0.3182,0.65 -1.3901,2.4014 -1.1443,3.3856 0.467,1.2036 2.2669,1.4702 3.2619,2.3177 1.4499,1.2346 2.5254,2.3628 2.796,4.5463 0.2509,2.0215 -2.4931,3.977 -4.7548,3.0786 -1.3717,-0.5448 -2.001,-2.283 -2.9195,-3.3731 -0.3588,-0.4256 -1.1712,-0.6961 -1.6579,-1.0041 -0.5528,-0.3496 -2.9863,0.3271 -3.2537,0.3919 -0.4685,-0.0545 -0.9368,-0.1095 -1.4053,-0.1641 -1.9536,0.2574 -4.1594,0.3987 -6.2936,-0.4533 -0.1215,-1.3639 -1.0616,-3.0377 -1.9485,-3.9218 -0.1032,-0.0179 -0.2065,-0.0358 -0.3091,-0.0536 -0.0605,0.0427 -0.1211,0.0853 -0.1816,0.1277 -0.1999,1.2282 0.6921,5.8657 -0.4265,6.1387 -0.6268,0.1527 -1.5803,-0.8409 -1.7993,-1.1083 -0.809,-0.989 -0.6183,-2.6206 -1.0205,-3.7608 -0.661,-0.9377 -1.3214,-1.8754 -1.9818,-2.8127 -0.2567,-0.7529 0.2402,-1.5807 -0.2704,-2.1177 -0.6412,-0.6742 -5.2111,1.0488 -7.1099,0.1218 -1.1023,-0.5383 -2.9625,-2.9566 -1.4815,-4.3185 0.6868,-0.4387 1.3737,-0.8772 2.0599,-1.3157 0.491,-0.6518 -0.0299,-1.9868 0.4556,-2.6292 0.881,0.0648 2.3501,0.7957 3.6983,0.7206 1.4149,-0.0787 7.185,-1.2026 7.8447,-2.0652 0.4755,-1.6697 0.9504,-3.3401 1.4259,-5.0097 0.5714,-1.1013 1.6049,-1.4931 1.8773,-3.0196 -0.2049,-0.1614 -0.2186,-0.2321 -0.3196,-0.4536 -2.0038,-0.3508 -3.2497,-0.5589 -4.8713,-0.8442 -0.2485,-0.5005 -0.7049,-0.8493 -0.9592,-1.361 0.068,-0.516 0.0419,-0.6159 0.2383,-0.9144 0.1858,-0.2532 -0.0251,-0.0988 0.2718,-0.1919 0.9704,-0.0847 1.1097,0.8073 2.0345,0.6713 1.2464,-0.1841 5.2635,-1.1641 6.0635,-1.8964 1.7141,-1.5691 1.5974,-4.6454 3.6875,-5.653 1.4314,0.2305 2.1996,0.6506 3.2575,0.963 0.0105,0.2018 -0.1291,0.236 0.2562,0.3627 -0.7887,2.3021 -3.1455,2.9782 -4.3913,4.6551 -1.5114,2.0351 -1.8695,5.0217 -2.849,7.71 -0.185,0.5064 -1.0616,1.9202 -0.9835,2.4576 1.9666,0.5315 1.7575,-2.1902 3.2423,-2.6239 1.5105,-0.125 3.3939,0.3966 4.2487,-0.6175 0.9348,-1.1103 0.4192,-2.741 1.1101,-4.1088 0.7816,-1.5465 1.8568,-3.3727 2.3806,-5.0034 0.5846,-1.8207 -1.5992,-2.4427 0.1688,-4.1918 z"
     style="fill:#004394;fill-rule:evenodd"
     id="path26" />
  <path
     d="m 69.3849,172.6258 c 0.3108,1.948 0.9559,3.0197 1.8651,4.5624 1.3491,0.3774 1.4661,-0.3341 2.255,-0.5334 0.7143,0.1642 1.4287,0.3285 2.143,0.4928 0.1907,2e-4 0.0259,0.0969 0.2476,-0.0143 0.6226,-0.1031 0.969,-1.0057 1.0034,-1.9252 -1.0905,-1.2255 -3.3651,-3.2307 -5.8151,-2.8579 -0.9167,0.1393 -1.0241,-0.3942 -1.699,0.2756 z M 68.6363,156.014 c 0.4573,4.1217 -3.2076,6.4747 2.5888,7.9246 0.8269,0.2071 1.3608,0.114 1.906,-0.1395 0.0068,-0.0252 0.0136,-0.0506 0.0203,-0.0758 -1.5918,-2.8733 -1.685,-5.9728 -3.8868,-8.8408 -0.2548,0.0337 -0.0904,-0.0254 -0.2679,0.0904 -0.1203,0.3474 -0.2403,0.6943 -0.3604,1.0411 z m -16.9958,8.8516 c 0.466,-1.5949 6.0105,-6.2118 7.2667,-6.5023 2.0043,-0.005 3.7077,2.1589 5.7964,1.7152 1.472,-2.336 1.1954,-5.609 1.4561,-8.4653 0.1763,-1.9345 1.3781,-4.3621 2.8307,-4.1978 1.9586,2.0164 2.9875,4.8234 3.757,7.5068 0.4126,1.4374 0.4175,3.8517 2.0369,4.5264 0.1602,-0.0921 0.3207,-0.1846 0.4808,-0.2774 1.2078,-0.5124 1.6635,-3.6619 2.4422,-4.8699 0.5244,-0.1156 1.4323,-0.6575 2.2094,-0.0583 1.2979,1.2215 0.2409,2.9802 0.0698,4.8936 -0.1976,2.2099 1.5019,4.1641 2.0651,6.2405 0.2576,0.9494 -0.1435,1.592 0.1083,2.6286 0.5204,2.1443 4.7243,1.4815 6.3863,2.8489 0.6467,0.5324 0.5628,1.4862 1.0691,2.0736 0.9105,1.0569 2.5756,0.9104 3.7184,1.89 0.4355,0.4964 0.8715,0.9922 1.3074,1.488 -0.0067,0.0253 -0.0135,0.0506 -0.0203,0.0759 -2.3572,-0.5708 -5.2191,0.359 -7.265,0.7342 -1.3057,0.2395 -3.1003,-0.9465 -4.4631,-0.627 -0.208,0.6751 -0.4159,1.351 -0.624,2.0262 -1.6776,0.2873 -3.9333,0.179 -4.921,1.6878 -0.5556,0.8492 0.2036,1.5361 -0.4778,2.3906 -0.5519,0.0652 -1.5503,0.051 -2.0984,0.2501 -1.0724,0.3893 -1.7344,1.5752 -2.9242,1.8166 -1.3155,0.266 -2.3885,-1.4172 -3.311,-0.0749 -0.1515,-0.0406 -0.303,-0.0812 -0.4548,-0.1219 -0.4481,-1.4655 -3.6929,-1.6575 -5.4821,-2.2811 0.6836,-1.4282 2.0264,-1.3296 2.6116,-2.4693 0.6268,-1.221 -0.5211,-2.2033 -0.7295,-3.039 -0.6121,-2.4566 -0.3481,-5.3783 -1.1687,-7.4628 -0.8708,-0.2876 -1.7417,-0.5752 -2.6126,-0.8621 -1.0746,-0.2344 -2.1496,-0.4682 -3.2244,-0.7019 -0.6786,-0.3975 -1.254,-1.0411 -1.8434,-1.3062 -1.4862,-0.6681 -3.0097,-0.3276 -3.9566,-1.3043 -0.0118,-0.0567 -0.0236,-0.1141 -0.0353,-0.1715 z"
     style="fill:#004394;fill-rule:evenodd"
     id="path28" />
  <path
     d="m 105.4598,117.5127 c 0.0651,0.4364 0.2083,0.9049 0.5548,1.3319 0.6664,0.2299 1.3405,0.5841 1.9978,0.6659 0.0185,-0.0186 0.037,-0.0371 0.0556,-0.0556 -0.0554,-0.3146 -0.1112,-0.6289 -0.1666,-0.9436 -0.7506,-0.8644 -0.9331,-1.3388 -1.8308,-1.4982 -0.2038,0.1667 -0.407,0.3329 -0.6108,0.4996 z m -6.7144,6.1595 c -0.2674,1.0672 -0.3828,1.5571 -0.1111,2.6638 0.037,-0.0371 0.0741,-0.0741 0.1111,-0.1112 0.1295,-0.0187 0.2592,-0.0372 0.3881,-0.0555 0.2516,-0.8083 0.2232,-1.4556 0.333,-2.2196 -0.1109,-0.1109 -0.2218,-0.2219 -0.333,-0.333 -0.1289,0.0183 -0.2586,0.0368 -0.3881,0.0555 z m 2.1085,-3.5514 c 0.0741,0.3325 0.1482,0.666 0.2222,0.9985 0.3177,0.3121 0.3699,0.3399 0.6658,0.3332 0.0186,-0.0927 0.0373,-0.1851 0.0558,-0.2777 -0.019,-0.2033 -0.0372,-0.4068 -0.0556,-0.6103 -0.2995,-0.3149 -0.5186,-0.4671 -0.777,-0.5548 -0.0371,0.0371 -0.0741,0.0741 -0.1112,0.1111 z m -7.9351,-17.9239 c -1.2021,1.5347 -2.4047,3.0708 -3.607,4.6055 -1.9248,3.5399 -1.6786,7.6217 -0.7771,11.2095 0.192,0.764 1.0443,3.5661 2.0534,3.94 0.0926,0.0185 0.185,0.0368 0.2776,0.0554 1.3021,-1.7764 0.3056,-10.0628 4.6055,-9.8218 2.1782,-0.723 3.4028,4.0616 4.3842,5.1605 1.441,-0.1358 3.8614,-0.211 5.0497,-1.7199 -0.1998,-0.4401 -0.1977,-0.7127 0.2773,-1.1656 1.7791,-0.263 3.2761,-1.4396 4.9943,-0.7768 0.4438,0.4438 0.8879,0.8879 1.3318,1.3318 -0.0616,1.4012 -0.3976,2.8127 -0.6104,4.3836 -0.4655,3.436 -0.3523,6.9087 -2.2198,10.4328 -0.6203,1.1705 -1.6341,1.662 -2.4414,2.4414 -1.3529,-0.5189 -2.2083,-0.6362 -3.7737,-2.2197 0.0375,-0.9988 0.0741,-1.9977 0.1109,-2.9964 -0.1294,-0.0924 -0.2587,-0.1854 -0.3881,-0.2778 -0.4617,-0.0696 -0.4579,0.9146 -1.0545,1.1656 -1.3781,0.5789 -3.1383,1.2557 -4.3283,-0.4439 -0.1689,-0.2413 -0.6858,-0.4997 -0.6659,-0.8882 -0.267,-1.4769 3.3746,-8.4838 0.0554,-8.7119 -0.0368,-0.0368 -0.0739,-0.0739 -0.1109,-0.1109 -0.7789,1.4972 -3.6992,5.3491 -3.3848,6.7143 0.0481,0.921 1.5898,1.5655 1.9976,2.7746 0.9239,2.7428 4.7087,6.7598 7.5468,8.9898 0.9717,0.763 0.7427,1.6363 1.7203,1.9417 0.8252,-0.7912 1.5998,-0.2932 2.4416,-0.6657 1.0871,-0.4807 3.6204,-4.3563 4.4393,-5.6598 -0.0741,-0.0741 -0.148,-0.148 -0.2221,-0.2221 -0.3899,0.0899 -0.6492,-0.1993 -0.8877,-0.3329 -0.0185,-0.0556 -0.0371,-0.1112 -0.0556,-0.1668 1.0318,-0.946 2.7369,-0.3885 3.3852,-1.9422 0.3316,-0.795 -0.1839,-1.5365 0.1664,-2.3861 1.3656,-0.5518 3.7849,-0.4519 4.6613,-2.3304 1.9485,-4.1759 -5.8098,-12.7682 -10.4325,-15.7599 -0.7054,-0.4561 -2.1916,-2.31 -3.2187,-2.7742 -0.6289,-0.5919 -1.258,-1.1839 -1.8865,-1.7762 -2.3288,-1.419 -4.4902,-3.5306 -6.8254,-4.1617 -0.7382,0.5204 -1.6962,1.2466 -2.6082,2.1644 z M 89.922,102.086 c 2.0579,-2.0994 4.1392,-4.1238 6.2153,-4.4394 4.9394,-0.7505 9.8967,4.7915 14.5388,9.4336 1.5722,1.5722 3.1446,3.1446 4.7168,4.7168 2.575,3.3068 7.6516,5.7903 8.5459,9.5443 0.3716,1.5606 -0.9593,8.8217 -3.9402,9.4894 -1.4308,0.3203 -4.8422,-0.5991 -6.0484,1.4982 -0.3438,0.5976 -0.4588,1.3979 -0.666,2.1088 -0.1414,0.4839 -3.6594,5.2316 -4.5504,5.6599 -1.0805,0.5196 -1.9651,0.2015 -2.9966,0.333 -0.3795,1.0463 0.2406,1.8353 -0.7766,2.8855 -0.0185,0.0186 -0.037,0.0371 -0.0556,0.0556 -1.0124,-0.2363 -2.2514,-0.4624 -3.3852,-0.8327 -0.3408,-0.1113 -2.5489,-2.2471 -2.7188,-2.7188 -0.7305,-2.0298 -2.4283,-4.2869 -3.7737,-6.3262 -1.1521,-1.7457 -2.9286,-2.7353 -3.8842,-3.3294 -0.9621,-0.7768 -1.9241,-1.5537 -2.8855,-2.3307 -0.6941,-0.4602 -2.1991,-1.2874 -2.8304,-2.3859 -3.053,-5.3173 -1.8778,-7.6272 -1.1098,-12.8742 0.2469,-1.6867 1.466,-3.3635 1.887,-4.9944 0.1848,-0.1848 0.37,-0.37 0.5548,-0.5548 0.4796,-0.8622 1.2524,-2.2607 1.6644,-3.2185 0.5,-0.5735 0.9991,-1.1467 1.4984,-1.7201 z"
     style="fill:#004394;fill-rule:evenodd"
     id="path30" />
  <path
     d="m 137.5394,94.1673 c 0.0311,1.2647 -0.5536,4.7103 -0.0322,5.659 0.0437,-0.0288 0.087,-0.0572 0.1307,-0.0861 0.1751,-0.1152 0.3495,-0.2301 0.5246,-0.3453 0.0525,-1.742 2.2732,-3.4696 0.248,-5.3314 -0.1812,-0.0371 -0.362,-0.0745 -0.5434,-0.112 -0.1094,0.0721 -0.2188,0.1441 -0.3277,0.2158 z m 12.5769,-10.7236 c -0.2222,1.3006 -1.0873,2.4557 -1.1751,3.7804 0.0864,0.1313 0.1727,0.2623 0.259,0.3933 0.0944,5e-4 0.1883,0.0014 0.2828,0.002 1.0899,-0.7486 2.9636,-3.4202 1.5252,-4.1051 -0.4383,-0.209 -0.3415,-0.3501 -0.8919,-0.0706 z m -14.354,5.5985 c -0.2551,0.2307 -0.5107,0.4617 -0.766,0.6921 0.079,0.1675 0.1577,0.3349 0.2365,0.5021 0.5321,-0.0585 0.9615,0.0057 1.4388,-0.3835 0.045,-0.2175 0.0901,-0.4349 0.1344,-0.6522 -0.1808,-0.1316 -0.3609,-0.2635 -0.5417,-0.395 -0.1674,0.0789 -0.3351,0.1579 -0.502,0.2365 z m 19.9484,-13.228 c -0.0547,0.3619 -0.0496,0.6206 0.1246,1.0455 0.0505,0.0291 0.1012,0.0584 0.1519,0.0878 0.1825,-0.2456 0.3653,-0.491 0.5483,-0.7369 -0.05,-0.1236 -0.1002,-0.2474 -0.1506,-0.3706 -0.1153,-0.0809 -0.2309,-0.1612 -0.3465,-0.2415 -0.1094,0.072 -0.2188,0.144 -0.3277,0.2157 z m -16.1832,9.5276 c -0.8536,1.4502 -1.6659,4.3491 0.7074,5.6417 0.0731,-0.0795 0.1463,-0.159 0.2188,-0.2381 0.59,-1.5137 1.305,-4.7021 0.6019,-6.2219 -0.4464,0.1436 -0.985,0.45 -1.5281,0.8183 z m 7.2081,-8.3167 c -0.1151,0.3087 -0.2049,0.408 -0.1563,0.7608 0.0427,0.1601 0.0852,0.3198 0.1277,0.4797 0.2102,0.0811 0.4196,0.1621 0.6298,0.2431 0.1243,-0.1445 0.2482,-0.2888 0.3725,-0.4334 -0.2671,-0.5776 -0.1511,-0.9045 -0.6023,-1.2006 -0.1238,0.0501 -0.2476,0.1003 -0.3714,0.1504 z m -8.8383,4.1282 c -0.312,0.8228 -0.9081,2.2736 -0.0182,3.1129 0.1675,-0.079 0.3349,-0.1582 0.5019,-0.2368 0.4239,-0.963 0.6603,-1.6485 0.56,-2.7176 -0.4329,-0.5262 -0.6634,-0.2628 -1.0437,-0.1585 z m 3.416,-18.7861 c 2.1907,-1.4282 7.5313,1.635 9.2315,3.318 0.9837,0.9736 0.4593,2.3554 1.5936,2.9909 1.4641,0.8202 3.1998,0.8131 4.6709,1.5289 0.8981,0.4368 1.5436,1.5207 2.4713,1.7552 1.2815,0.3243 2.8356,-0.5232 4.0473,0.1541 0.4277,0.2199 0.5966,0.6762 0.6252,1.0915 -1.3548,2.2886 -5.3737,5.2111 -5.0732,7.8505 0.2617,2.2936 2.2432,3.6556 2.9042,5.9805 0.7717,2.0284 1.5439,4.0574 2.3157,6.0858 0.1138,0.4529 0.1976,1.9744 0.6188,2.2237 0.1215,0.898 0.0817,1.9448 0.1579,2.8086 0.0784,0.8954 1.0424,1.8901 0.8564,2.4429 -0.0286,-0.0435 -0.0574,-0.0872 -0.0862,-0.131 -2.4357,-0.2858 -4.4906,-2.4888 -6.3717,-4.8253 -1.5382,-1.911 -2.5777,-5.1073 -4.1878,-6.0747 -0.0581,0.0069 -0.1157,0.0135 -0.1739,0.0204 -3.0317,2.1771 -3.4919,5.3227 -7.5283,7.1182 -1.0184,-1.0355 -3.4996,-3.4423 -3.2142,-5.0247 0.1982,-1.1036 1.1592,-2.0686 1.1718,-3.2149 -0.1282,-0.4793 -0.2559,-0.9591 -0.3835,-1.4388 -0.0443,-0.8329 0.2348,-1.8229 0.32,-2.6532 0.0766,-0.7504 -1.1484,-4.4281 -2.1529,-4.1262 -0.8777,0.2635 -0.849,3.0826 -0.8269,3.7389 0.0553,1.6572 0.6451,3.3824 0.7111,5.0755 0.1315,3.3925 -1.5017,4.1117 0.2582,8.0985 0.7992,1.81 5.4229,5.0124 5.2553,5.8419 -0.0151,0.1664 -0.0308,0.3331 -0.0463,0.5002 -0.5349,0.3911 -0.6756,0.5098 -1.135,0.5591 -1.052,-0.4151 -2.3114,-0.8779 -3.2769,-1.6948 -0.8686,-0.7348 -1.3072,-1.6752 -2.2299,-2.102 -0.0801,0.0214 -0.1596,0.0424 -0.2396,0.0638 -1.5408,2.8741 -0.9012,5.9985 -5.5543,8.2608 -0.2175,-0.0445 -0.4352,-0.0893 -0.652,-0.134 -0.7324,-1.0635 -3.0292,-3.3646 -2.9985,-4.6971 0.2599,-1.0795 0.5199,-2.1591 0.7799,-3.2383 0.2595,-2.6838 0.2447,-5.3529 0.5686,-7.985 -0.0939,-0.0951 -0.1878,-0.19 -0.2815,-0.2847 -0.0582,0.0069 -0.1163,0.0138 -0.1743,0.021 -0.9008,1.3007 -3.2014,4.4521 -5.0552,4.7375 -2.4831,-3.6912 0.0924,-7.3708 0.909,-10.4643 0.4628,-1.7543 1.7519,-8.3777 1.4282,-9.9604 -0.2569,-1.2556 -1.1309,-1.8662 -1.3535,-3.0549 1.1493,-1.3147 2.4968,-1.2676 3.8622,-1.6976 1.1745,2.0754 0.3337,3.5056 0.164,5.5297 -0.3422,4.0869 -1.9624,8.2893 -3.0301,12.2364 -0.2998,1.1085 -0.8669,2.1107 -0.9548,3.2598 0.1301,0.1022 0.2603,0.2047 0.3902,0.3069 0.5043,-0.4261 6.0317,-5.8222 6.1291,-6.1028 0.8887,-2.5565 -3.0116,-8.7067 2.0136,-9.5001 0.8196,0.4559 3.1785,1.5385 4.0828,1.6338 0.0656,-0.0432 0.1312,-0.0864 0.1964,-0.1293 0.7535,-2.7523 -0.1334,-3.063 -2.3462,-4.5627 0.1539,-1.3903 0.4586,-2.1998 1.3914,-3.4528 1.2596,0.7627 2.3188,1.0738 3.6077,0.9133 1.1463,-2.3719 -4.2328,-6.7576 -3.4056,-9.5967 z"
     style="fill:#004394;fill-rule:evenodd"
     id="path32" />
  <path
     d="M -0.0226,0 V 453.5433 H 453.5433 V 0 Z"
     style="fill:none"
     id="path34" />
</svg>
